<mxfile host="Electron" modified="2024-03-15T16:58:55.138Z" agent="Mozilla/5.0 (Windows NT 10.0; Win64; x64) AppleWebKit/537.36 (KHTML, like Gecko) draw.io/21.6.8 Chrome/114.0.5735.289 Electron/25.5.0 Safari/537.36" etag="z_TvPACnC5eaaXl-UvHG" version="21.6.8" type="device">
  <diagram id="R2lEEEUBdFMjLlhIrx00" name="Page-1">
    <mxGraphModel dx="3272" dy="1612" grid="0" gridSize="10" guides="1" tooltips="1" connect="1" arrows="0" fold="1" page="0" pageScale="1" pageWidth="827" pageHeight="1169" background="#FFFFFF" math="0" shadow="0" extFonts="Permanent Marker^https://fonts.googleapis.com/css?family=Permanent+Marker">
      <root>
        <mxCell id="0" />
        <mxCell id="1" parent="0" />
        <mxCell id="RrBwnPx38zNHqgzz5I3o-2" value="&lt;h2 style=&quot;font-size: 14px;&quot;&gt;User&lt;/h2&gt;" style="whiteSpace=wrap;html=1;align=center;fillColor=#99CCFF;fontColor=#000000;strokeColor=#000000;fontStyle=1;fontSize=14;" parent="1" vertex="1">
          <mxGeometry x="-51.5" y="167.5" width="100" height="40" as="geometry" />
        </mxCell>
        <mxCell id="RrBwnPx38zNHqgzz5I3o-3" value="&lt;font style=&quot;font-size: 14px;&quot;&gt;Connect&lt;/font&gt;" style="shape=rhombus;perimeter=rhombusPerimeter;whiteSpace=wrap;html=1;align=center;fillColor=#FFCCCC;fontColor=#000000;strokeColor=#330000;fontStyle=1;fontSize=14;" parent="1" vertex="1">
          <mxGeometry x="158.5" y="152" width="99" height="71" as="geometry" />
        </mxCell>
        <mxCell id="RrBwnPx38zNHqgzz5I3o-4" value="&lt;h2&gt;Per Care&lt;/h2&gt;" style="whiteSpace=wrap;html=1;align=center;fillColor=#99CCFF;fontColor=#000000;strokeColor=#000000;" parent="1" vertex="1">
          <mxGeometry x="375.5" y="167.5" width="100" height="40" as="geometry" />
        </mxCell>
        <mxCell id="RrBwnPx38zNHqgzz5I3o-9" value="" style="endArrow=none;html=1;rounded=0;strokeColor=#000000;strokeWidth=3;entryX=0;entryY=0.5;entryDx=0;entryDy=0;exitX=1;exitY=0.5;exitDx=0;exitDy=0;fontColor=#000000;" parent="1" edge="1">
          <mxGeometry relative="1" as="geometry">
            <mxPoint x="48.5" y="188.5" as="sourcePoint" />
            <mxPoint x="158.5" y="188.5" as="targetPoint" />
          </mxGeometry>
        </mxCell>
        <mxCell id="RrBwnPx38zNHqgzz5I3o-11" value="" style="endArrow=none;html=1;rounded=0;strokeColor=#000000;strokeWidth=3;entryX=0;entryY=0.5;entryDx=0;entryDy=0;exitX=1;exitY=0.5;exitDx=0;exitDy=0;fontColor=#000000;" parent="1" source="RrBwnPx38zNHqgzz5I3o-3" target="RrBwnPx38zNHqgzz5I3o-4" edge="1">
          <mxGeometry relative="1" as="geometry">
            <mxPoint x="543.5" y="194" as="sourcePoint" />
            <mxPoint x="618.5" y="193" as="targetPoint" />
          </mxGeometry>
        </mxCell>
        <mxCell id="RrBwnPx38zNHqgzz5I3o-13" value="" style="endArrow=none;html=1;rounded=0;strokeColor=#000000;strokeWidth=3;exitX=0.6;exitY=1;exitDx=0;exitDy=0;entryX=0.5;entryY=0;entryDx=0;entryDy=0;exitPerimeter=0;fontColor=#000000;" parent="1" source="RrBwnPx38zNHqgzz5I3o-2" target="RrBwnPx38zNHqgzz5I3o-15" edge="1">
          <mxGeometry relative="1" as="geometry">
            <mxPoint x="6" y="136.5" as="sourcePoint" />
            <mxPoint x="-26.000000000000455" y="510.5" as="targetPoint" />
            <Array as="points" />
          </mxGeometry>
        </mxCell>
        <mxCell id="RrBwnPx38zNHqgzz5I3o-15" value="&lt;font style=&quot;font-size: 14px;&quot;&gt;Contact&lt;/font&gt;" style="shape=rhombus;perimeter=rhombusPerimeter;whiteSpace=wrap;html=1;align=center;fillColor=#FFCCCC;strokeColor=#330000;fontColor=#000000;fontSize=14;fontStyle=1" parent="1" vertex="1">
          <mxGeometry x="10" y="374" width="89" height="70" as="geometry" />
        </mxCell>
        <mxCell id="RrBwnPx38zNHqgzz5I3o-18" value="" style="endArrow=none;html=1;rounded=0;strokeColor=#000000;strokeWidth=3;exitX=0.5;exitY=1;exitDx=0;exitDy=0;entryX=0.5;entryY=0;entryDx=0;entryDy=0;fontColor=#000000;" parent="1" source="RrBwnPx38zNHqgzz5I3o-15" target="RrBwnPx38zNHqgzz5I3o-22" edge="1">
          <mxGeometry relative="1" as="geometry">
            <mxPoint x="499" y="357.5" as="sourcePoint" />
            <mxPoint x="499" y="438.5" as="targetPoint" />
          </mxGeometry>
        </mxCell>
        <mxCell id="RrBwnPx38zNHqgzz5I3o-22" value="&lt;h2&gt;Vet&lt;/h2&gt;" style="whiteSpace=wrap;html=1;align=center;fillColor=#99CCFF;fontColor=#000000;strokeColor=#000000;" parent="1" vertex="1">
          <mxGeometry x="-120.5" y="683" width="100" height="40" as="geometry" />
        </mxCell>
        <mxCell id="RrBwnPx38zNHqgzz5I3o-23" value="" style="endArrow=none;html=1;rounded=0;strokeColor=#000000;strokeWidth=3;exitX=0.162;exitY=0.985;exitDx=0;exitDy=0;entryX=0.5;entryY=0;entryDx=0;entryDy=0;exitPerimeter=0;fontColor=#000000;" parent="1" source="RrBwnPx38zNHqgzz5I3o-2" target="RrBwnPx38zNHqgzz5I3o-25" edge="1">
          <mxGeometry relative="1" as="geometry">
            <mxPoint x="373.5" y="267.5" as="sourcePoint" />
            <mxPoint x="372.5" y="348.5" as="targetPoint" />
          </mxGeometry>
        </mxCell>
        <mxCell id="RrBwnPx38zNHqgzz5I3o-25" value="&lt;h2 style=&quot;font-size: 14px;&quot;&gt;&lt;font style=&quot;font-size: 14px;&quot;&gt;Access&lt;/font&gt;&lt;/h2&gt;" style="shape=rhombus;perimeter=rhombusPerimeter;whiteSpace=wrap;html=1;align=center;fillColor=#FFCCCC;strokeColor=#330000;fontStyle=1;fontSize=14;fontColor=#000000;" parent="1" vertex="1">
          <mxGeometry x="-196" y="267.5" width="89" height="70" as="geometry" />
        </mxCell>
        <mxCell id="RrBwnPx38zNHqgzz5I3o-26" value="" style="endArrow=none;html=1;rounded=0;strokeColor=#000000;strokeWidth=3;exitX=0.5;exitY=1;exitDx=0;exitDy=0;entryX=0.5;entryY=0;entryDx=0;entryDy=0;fontColor=#000000;" parent="1" source="RrBwnPx38zNHqgzz5I3o-25" target="RrBwnPx38zNHqgzz5I3o-28" edge="1">
          <mxGeometry relative="1" as="geometry">
            <mxPoint x="373" y="428.5" as="sourcePoint" />
            <mxPoint x="373" y="509.5" as="targetPoint" />
          </mxGeometry>
        </mxCell>
        <mxCell id="RrBwnPx38zNHqgzz5I3o-28" value="&lt;h2&gt;Shop&lt;/h2&gt;" style="whiteSpace=wrap;html=1;align=center;fillColor=#99CCFF;fontColor=#000000;strokeColor=#000000;" parent="1" vertex="1">
          <mxGeometry x="-201.5" y="388.5" width="100" height="40" as="geometry" />
        </mxCell>
        <mxCell id="RrBwnPx38zNHqgzz5I3o-30" value="&lt;h2 style=&quot;font-size: 14px;&quot;&gt;&lt;font style=&quot;font-size: 14px;&quot;&gt;Has&lt;/font&gt;&lt;/h2&gt;" style="shape=rhombus;perimeter=rhombusPerimeter;whiteSpace=wrap;html=1;align=center;fillColor=#FFCCCC;strokeColor=#330000;fontStyle=1;fontSize=14;fontColor=#000000;" parent="1" vertex="1">
          <mxGeometry x="-341.5" y="70" width="99" height="71" as="geometry" />
        </mxCell>
        <mxCell id="RrBwnPx38zNHqgzz5I3o-31" value="&lt;h2 style=&quot;font-size: 19px;&quot;&gt;&lt;font style=&quot;font-size: 19px;&quot;&gt;&lt;b&gt;Pet&lt;br&gt;&lt;/b&gt;&lt;/font&gt;&lt;b style=&quot;background-color: initial;&quot;&gt;Tracker&lt;/b&gt;&lt;/h2&gt;" style="whiteSpace=wrap;html=1;align=center;fillColor=#99CCFF;fontColor=#000000;strokeColor=#000000;" parent="1" vertex="1">
          <mxGeometry x="-661.5" y="80.5" width="130" height="52" as="geometry" />
        </mxCell>
        <mxCell id="RrBwnPx38zNHqgzz5I3o-32" value="" style="endArrow=none;html=1;rounded=0;strokeColor=#000000;strokeWidth=3;exitX=0;exitY=0.25;exitDx=0;exitDy=0;entryX=1;entryY=0.5;entryDx=0;entryDy=0;fontColor=#000000;" parent="1" source="RrBwnPx38zNHqgzz5I3o-2" target="RrBwnPx38zNHqgzz5I3o-30" edge="1">
          <mxGeometry relative="1" as="geometry">
            <mxPoint x="178.5" y="105.5" as="sourcePoint" />
            <mxPoint x="348.5" y="176.5" as="targetPoint" />
            <Array as="points" />
          </mxGeometry>
        </mxCell>
        <mxCell id="RrBwnPx38zNHqgzz5I3o-34" value="" style="endArrow=none;html=1;rounded=0;strokeColor=#000000;strokeWidth=3;exitX=0;exitY=0.5;exitDx=0;exitDy=0;entryX=1;entryY=0.5;entryDx=0;entryDy=0;fillColor=#a20025;fontColor=#000000;" parent="1" source="RrBwnPx38zNHqgzz5I3o-30" target="RrBwnPx38zNHqgzz5I3o-31" edge="1">
          <mxGeometry relative="1" as="geometry">
            <mxPoint x="378.5" y="105.5" as="sourcePoint" />
            <mxPoint x="467.5" y="105.5" as="targetPoint" />
            <Array as="points" />
          </mxGeometry>
        </mxCell>
        <mxCell id="RrBwnPx38zNHqgzz5I3o-35" value="" style="endArrow=none;html=1;rounded=0;strokeColor=#000000;strokeWidth=3;exitX=0;exitY=0.75;exitDx=0;exitDy=0;entryX=0.5;entryY=0;entryDx=0;entryDy=0;fontColor=#000000;" parent="1" source="RrBwnPx38zNHqgzz5I3o-2" target="RrBwnPx38zNHqgzz5I3o-37" edge="1">
          <mxGeometry relative="1" as="geometry">
            <mxPoint x="245.5" y="196.1" as="sourcePoint" />
            <mxPoint x="167.5" y="349.1" as="targetPoint" />
          </mxGeometry>
        </mxCell>
        <mxCell id="RrBwnPx38zNHqgzz5I3o-37" value="&lt;h2 style=&quot;font-size: 14px;&quot;&gt;&lt;font style=&quot;font-size: 14px;&quot;&gt;Has&lt;/font&gt;&lt;/h2&gt;" style="shape=rhombus;perimeter=rhombusPerimeter;whiteSpace=wrap;html=1;align=center;fillColor=#FFCCCC;strokeColor=#330000;fontStyle=1;fontSize=14;fontColor=#000000;" parent="1" vertex="1">
          <mxGeometry x="-616.5" y="201.5" width="89" height="70" as="geometry" />
        </mxCell>
        <mxCell id="RrBwnPx38zNHqgzz5I3o-38" value="" style="endArrow=none;html=1;rounded=0;strokeColor=#000000;strokeWidth=3;exitX=0.5;exitY=1;exitDx=0;exitDy=0;entryX=0.5;entryY=0;entryDx=0;entryDy=0;fontColor=#000000;" parent="1" source="RrBwnPx38zNHqgzz5I3o-37" target="RrBwnPx38zNHqgzz5I3o-40" edge="1">
          <mxGeometry relative="1" as="geometry">
            <mxPoint x="168" y="429.1" as="sourcePoint" />
            <mxPoint x="168" y="510.1" as="targetPoint" />
          </mxGeometry>
        </mxCell>
        <mxCell id="RrBwnPx38zNHqgzz5I3o-40" value="&lt;h2&gt;Friend&lt;/h2&gt;" style="whiteSpace=wrap;html=1;align=center;fillColor=#99CCFF;fontColor=#000000;strokeColor=#000000;" parent="1" vertex="1">
          <mxGeometry x="-621" y="388.5" width="100" height="40" as="geometry" />
        </mxCell>
        <mxCell id="RrBwnPx38zNHqgzz5I3o-41" value="&lt;font style=&quot;font-size: 14px;&quot;&gt;Issue&lt;/font&gt;" style="shape=rhombus;perimeter=rhombusPerimeter;whiteSpace=wrap;html=1;align=center;fillColor=#FFCCCC;strokeColor=#330000;fontColor=#000000;fontSize=14;fontStyle=1" parent="1" vertex="1">
          <mxGeometry x="-115" y="817.5" width="89" height="70" as="geometry" />
        </mxCell>
        <mxCell id="RrBwnPx38zNHqgzz5I3o-44" value="&lt;h2&gt;Certificates&lt;/h2&gt;" style="whiteSpace=wrap;html=1;align=center;fillColor=#99CCFF;fontColor=#000000;strokeColor=#000000;" parent="1" vertex="1">
          <mxGeometry x="-132.25" y="937.5" width="123.5" height="50" as="geometry" />
        </mxCell>
        <mxCell id="RrBwnPx38zNHqgzz5I3o-45" value="" style="endArrow=none;html=1;rounded=0;strokeWidth=3;strokeColor=#000000;exitX=0.5;exitY=0;exitDx=0;exitDy=0;entryX=0.5;entryY=1;entryDx=0;entryDy=0;fontColor=#000000;" parent="1" source="RrBwnPx38zNHqgzz5I3o-41" target="RrBwnPx38zNHqgzz5I3o-22" edge="1">
          <mxGeometry relative="1" as="geometry">
            <mxPoint x="495.5" y="499.5" as="sourcePoint" />
            <mxPoint x="-74" y="643" as="targetPoint" />
          </mxGeometry>
        </mxCell>
        <mxCell id="RrBwnPx38zNHqgzz5I3o-47" value="&lt;font style=&quot;font-size: 14px;&quot;&gt;Contact&lt;/font&gt;" style="shape=rhombus;perimeter=rhombusPerimeter;whiteSpace=wrap;html=1;align=center;fillColor=#FFCCCC;strokeColor=#330000;fontColor=#000000;fontSize=14;fontStyle=1" parent="1" vertex="1">
          <mxGeometry x="-401.5" y="667.5" width="99" height="71" as="geometry" />
        </mxCell>
        <mxCell id="RrBwnPx38zNHqgzz5I3o-48" value="" style="endArrow=none;html=1;rounded=0;strokeColor=#000000;strokeWidth=3;entryX=0;entryY=0.5;entryDx=0;entryDy=0;fontColor=#000000;" parent="1" edge="1">
          <mxGeometry relative="1" as="geometry">
            <mxPoint x="-540" y="430" as="sourcePoint" />
            <mxPoint x="-397.5" y="703" as="targetPoint" />
            <Array as="points" />
          </mxGeometry>
        </mxCell>
        <mxCell id="RrBwnPx38zNHqgzz5I3o-50" value="" style="endArrow=none;html=1;rounded=0;strokeColor=#000000;strokeWidth=3;exitX=0.909;exitY=0.5;exitDx=0;exitDy=0;exitPerimeter=0;entryX=0;entryY=0.5;entryDx=0;entryDy=0;fontColor=#000000;" parent="1" source="RrBwnPx38zNHqgzz5I3o-47" target="RrBwnPx38zNHqgzz5I3o-22" edge="1">
          <mxGeometry relative="1" as="geometry">
            <mxPoint x="423" y="507.5" as="sourcePoint" />
            <mxPoint x="468.5" y="507.5" as="targetPoint" />
          </mxGeometry>
        </mxCell>
        <mxCell id="RrBwnPx38zNHqgzz5I3o-52" value="&lt;h2 style=&quot;font-size: 14px;&quot;&gt;&lt;font style=&quot;font-size: 14px;&quot;&gt;&lt;span style=&quot;font-size: 14px;&quot;&gt;Contact&lt;/span&gt;&lt;/font&gt;&lt;/h2&gt;" style="shape=rhombus;perimeter=rhombusPerimeter;whiteSpace=wrap;html=1;align=center;fillColor=#FFCCCC;strokeColor=#330000;fontStyle=1;fontSize=14;fontColor=#000000;" parent="1" vertex="1">
          <mxGeometry x="-381.5" y="373" width="99" height="71" as="geometry" />
        </mxCell>
        <mxCell id="RrBwnPx38zNHqgzz5I3o-53" value="" style="endArrow=none;html=1;rounded=0;strokeColor=#000000;strokeWidth=3;entryX=0;entryY=0.5;entryDx=0;entryDy=0;exitX=1;exitY=0.5;exitDx=0;exitDy=0;fontColor=#000000;" parent="1" source="RrBwnPx38zNHqgzz5I3o-40" target="RrBwnPx38zNHqgzz5I3o-52" edge="1">
          <mxGeometry relative="1" as="geometry">
            <mxPoint x="-511.5" y="408.5" as="sourcePoint" />
            <mxPoint x="-67" y="465" as="targetPoint" />
          </mxGeometry>
        </mxCell>
        <mxCell id="RrBwnPx38zNHqgzz5I3o-55" value="" style="endArrow=none;html=1;rounded=0;strokeColor=#000000;strokeWidth=3;exitX=1;exitY=0.5;exitDx=0;exitDy=0;entryX=0;entryY=0.5;entryDx=0;entryDy=0;fontColor=#000000;" parent="1" source="RrBwnPx38zNHqgzz5I3o-52" target="RrBwnPx38zNHqgzz5I3o-28" edge="1">
          <mxGeometry relative="1" as="geometry">
            <mxPoint x="33" y="465" as="sourcePoint" />
            <mxPoint x="-126" y="405" as="targetPoint" />
          </mxGeometry>
        </mxCell>
        <mxCell id="RrBwnPx38zNHqgzz5I3o-56" value="" style="endArrow=none;html=1;rounded=0;strokeColor=#000000;strokeWidth=3;exitX=1;exitY=1;exitDx=0;exitDy=0;entryX=0.5;entryY=0;entryDx=0;entryDy=0;fontColor=#000000;" parent="1" source="RrBwnPx38zNHqgzz5I3o-2" target="RrBwnPx38zNHqgzz5I3o-58" edge="1">
          <mxGeometry relative="1" as="geometry">
            <mxPoint x="698.5" y="257.5" as="sourcePoint" />
            <mxPoint x="697.5" y="338.5" as="targetPoint" />
          </mxGeometry>
        </mxCell>
        <mxCell id="RrBwnPx38zNHqgzz5I3o-58" value="&lt;font style=&quot;font-size: 14px;&quot;&gt;Contact&lt;/font&gt;" style="shape=rhombus;perimeter=rhombusPerimeter;whiteSpace=wrap;html=1;align=center;fillColor=#FFCCCC;fontColor=#000000;strokeColor=#330000;fontSize=14;fontStyle=1" parent="1" vertex="1">
          <mxGeometry x="92" y="327" width="89" height="70" as="geometry" />
        </mxCell>
        <mxCell id="RrBwnPx38zNHqgzz5I3o-59" value="" style="endArrow=none;html=1;rounded=0;strokeColor=#000000;strokeWidth=3;exitX=0.5;exitY=1;exitDx=0;exitDy=0;entryX=0.5;entryY=0;entryDx=0;entryDy=0;fontColor=#000000;" parent="1" source="RrBwnPx38zNHqgzz5I3o-58" target="RrBwnPx38zNHqgzz5I3o-61" edge="1">
          <mxGeometry relative="1" as="geometry">
            <mxPoint x="698" y="418.5" as="sourcePoint" />
            <mxPoint x="698" y="499.5" as="targetPoint" />
          </mxGeometry>
        </mxCell>
        <mxCell id="RrBwnPx38zNHqgzz5I3o-61" value="&lt;h2&gt;Funeral Shop&lt;/h2&gt;" style="whiteSpace=wrap;html=1;align=center;fillColor=#99CCFF;fontColor=#000000;strokeColor=#000000;" parent="1" vertex="1">
          <mxGeometry x="150" y="763.4" width="114.5" height="50" as="geometry" />
        </mxCell>
        <mxCell id="RrBwnPx38zNHqgzz5I3o-62" value="&lt;font style=&quot;font-size: 14px;&quot;&gt;Mention&lt;/font&gt;" style="shape=rhombus;perimeter=rhombusPerimeter;whiteSpace=wrap;html=1;align=center;fillColor=#FFCCCC;strokeColor=#330000;fontColor=#000000;fontSize=14;fontStyle=1" parent="1" vertex="1">
          <mxGeometry x="-596" y="756.5" width="99" height="71" as="geometry" />
        </mxCell>
        <mxCell id="RrBwnPx38zNHqgzz5I3o-63" value="" style="endArrow=none;html=1;rounded=0;strokeColor=#000000;strokeWidth=3;entryX=0.5;entryY=0;entryDx=0;entryDy=0;exitX=0.5;exitY=1;exitDx=0;exitDy=0;fontColor=#000000;" parent="1" source="RrBwnPx38zNHqgzz5I3o-40" target="RrBwnPx38zNHqgzz5I3o-62" edge="1">
          <mxGeometry relative="1" as="geometry">
            <mxPoint x="-280.00000000000006" y="619.5" as="sourcePoint" />
            <mxPoint x="-226.3" y="732.2" as="targetPoint" />
          </mxGeometry>
        </mxCell>
        <mxCell id="RrBwnPx38zNHqgzz5I3o-65" value="" style="endArrow=none;html=1;rounded=0;strokeColor=#000000;strokeWidth=3;entryX=0.5;entryY=0;entryDx=0;entryDy=0;exitX=0.5;exitY=1;exitDx=0;exitDy=0;fontColor=#000000;" parent="1" source="RrBwnPx38zNHqgzz5I3o-62" target="RrBwnPx38zNHqgzz5I3o-66" edge="1">
          <mxGeometry relative="1" as="geometry">
            <mxPoint x="-375.5" y="800.5" as="sourcePoint" />
            <mxPoint x="-329.8" y="800.2" as="targetPoint" />
          </mxGeometry>
        </mxCell>
        <mxCell id="RrBwnPx38zNHqgzz5I3o-66" value="&lt;h2&gt;Homeless&lt;br&gt;Pet&lt;/h2&gt;" style="whiteSpace=wrap;html=1;align=center;fillColor=#99CCFF;fontColor=#000000;strokeColor=#000000;" parent="1" vertex="1">
          <mxGeometry x="-638" y="1007.5" width="134" height="50" as="geometry" />
        </mxCell>
        <mxCell id="RrBwnPx38zNHqgzz5I3o-67" value="&lt;font style=&quot;font-size: 14px;&quot;&gt;Mention&lt;/font&gt;" style="shape=rhombus;perimeter=rhombusPerimeter;whiteSpace=wrap;html=1;align=center;fillColor=#FFCCCC;strokeColor=#330000;fontStyle=1;fontSize=14;fontColor=#000000;" parent="1" vertex="1">
          <mxGeometry x="-764" y="583.5" width="99" height="71" as="geometry" />
        </mxCell>
        <mxCell id="RrBwnPx38zNHqgzz5I3o-68" value="" style="endArrow=none;html=1;rounded=0;strokeColor=#000000;strokeWidth=3;entryX=1;entryY=0.5;entryDx=0;entryDy=0;fontColor=#000000;" parent="1" target="RrBwnPx38zNHqgzz5I3o-67" edge="1">
          <mxGeometry relative="1" as="geometry">
            <mxPoint x="-600" y="430" as="sourcePoint" />
            <mxPoint x="-651.0000000000002" y="620" as="targetPoint" />
            <Array as="points" />
          </mxGeometry>
        </mxCell>
        <mxCell id="RrBwnPx38zNHqgzz5I3o-70" value="" style="endArrow=none;html=1;rounded=0;strokeColor=#000000;strokeWidth=3;entryX=0.5;entryY=0;entryDx=0;entryDy=0;fontColor=#000000;" parent="1" target="RrBwnPx38zNHqgzz5I3o-71" edge="1">
          <mxGeometry relative="1" as="geometry">
            <mxPoint x="-761" y="619" as="sourcePoint" />
            <mxPoint x="-265.8" y="753.1600000000001" as="targetPoint" />
          </mxGeometry>
        </mxCell>
        <mxCell id="RrBwnPx38zNHqgzz5I3o-71" value="&lt;h2&gt;Shelters&lt;/h2&gt;" style="whiteSpace=wrap;html=1;align=center;fillColor=#99CCFF;fontColor=#000000;strokeColor=#000000;" parent="1" vertex="1">
          <mxGeometry x="-810.72" y="787.5" width="100" height="40" as="geometry" />
        </mxCell>
        <mxCell id="RrBwnPx38zNHqgzz5I3o-73" value="&lt;font style=&quot;font-size: 14px;&quot;&gt;have&lt;/font&gt;" style="shape=rhombus;perimeter=rhombusPerimeter;whiteSpace=wrap;html=1;align=center;fillColor=#FFCCCC;fontColor=#000000;strokeColor=#330000;fontSize=14;fontStyle=1" parent="1" vertex="1">
          <mxGeometry x="606" y="146.25" width="99" height="71" as="geometry" />
        </mxCell>
        <mxCell id="RrBwnPx38zNHqgzz5I3o-74" value="&lt;h2&gt;Trainers&lt;/h2&gt;" style="whiteSpace=wrap;html=1;align=center;fillColor=#99CCFF;fontColor=#000000;strokeColor=#000000;" parent="1" vertex="1">
          <mxGeometry x="801" y="161.5" width="100" height="40" as="geometry" />
        </mxCell>
        <mxCell id="RrBwnPx38zNHqgzz5I3o-75" value="" style="endArrow=none;html=1;rounded=0;strokeColor=#000000;strokeWidth=3;entryX=0;entryY=0.5;entryDx=0;entryDy=0;exitX=1;exitY=0.5;exitDx=0;exitDy=0;fontColor=#000000;" parent="1" source="RrBwnPx38zNHqgzz5I3o-4" target="RrBwnPx38zNHqgzz5I3o-73" edge="1">
          <mxGeometry relative="1" as="geometry">
            <mxPoint x="703.5" y="193" as="sourcePoint" />
            <mxPoint x="783.5" y="193" as="targetPoint" />
          </mxGeometry>
        </mxCell>
        <mxCell id="RrBwnPx38zNHqgzz5I3o-77" value="" style="endArrow=none;html=1;rounded=0;strokeColor=#000000;strokeWidth=3;exitX=1;exitY=0.5;exitDx=0;exitDy=0;entryX=0;entryY=0.5;entryDx=0;entryDy=0;fontColor=#000000;" parent="1" source="RrBwnPx38zNHqgzz5I3o-73" target="RrBwnPx38zNHqgzz5I3o-74" edge="1">
          <mxGeometry relative="1" as="geometry">
            <mxPoint x="776" y="264.5" as="sourcePoint" />
            <mxPoint x="828" y="130" as="targetPoint" />
            <Array as="points" />
          </mxGeometry>
        </mxCell>
        <mxCell id="RrBwnPx38zNHqgzz5I3o-79" value="&lt;font style=&quot;font-size: 14px;&quot;&gt;Identify&lt;/font&gt;" style="shape=rhombus;perimeter=rhombusPerimeter;whiteSpace=wrap;html=1;align=center;fillColor=#FFCCCC;fontColor=#000000;strokeColor=#330000;fontSize=14;fontStyle=1" parent="1" vertex="1">
          <mxGeometry x="338.5" y="337.5" width="99" height="71" as="geometry" />
        </mxCell>
        <mxCell id="RrBwnPx38zNHqgzz5I3o-80" value="&lt;h2&gt;Breed&lt;/h2&gt;" style="whiteSpace=wrap;html=1;align=center;fillColor=#99CCFF;fontColor=#000000;strokeColor=#000000;" parent="1" vertex="1">
          <mxGeometry x="338.5" y="488.5" width="100" height="40" as="geometry" />
        </mxCell>
        <mxCell id="RrBwnPx38zNHqgzz5I3o-81" value="" style="endArrow=none;html=1;rounded=0;strokeColor=#000000;strokeWidth=3;entryX=0.5;entryY=0;entryDx=0;entryDy=0;exitX=0.115;exitY=0.991;exitDx=0;exitDy=0;exitPerimeter=0;fontColor=#000000;" parent="1" source="RrBwnPx38zNHqgzz5I3o-4" target="RrBwnPx38zNHqgzz5I3o-79" edge="1">
          <mxGeometry relative="1" as="geometry">
            <mxPoint x="380" y="210" as="sourcePoint" />
            <mxPoint x="673.5" y="328.5" as="targetPoint" />
          </mxGeometry>
        </mxCell>
        <mxCell id="RrBwnPx38zNHqgzz5I3o-83" value="" style="endArrow=none;html=1;rounded=0;strokeColor=#000000;strokeWidth=3;exitX=0.5;exitY=1;exitDx=0;exitDy=0;fontColor=#000000;" parent="1" source="RrBwnPx38zNHqgzz5I3o-79" target="RrBwnPx38zNHqgzz5I3o-80" edge="1">
          <mxGeometry relative="1" as="geometry">
            <mxPoint x="599" y="385" as="sourcePoint" />
            <mxPoint x="651.7" y="490.02" as="targetPoint" />
          </mxGeometry>
        </mxCell>
        <mxCell id="RrBwnPx38zNHqgzz5I3o-85" value="&lt;font style=&quot;font-size: 14px;&quot;&gt;Identify&lt;/font&gt;" style="shape=rhombus;perimeter=rhombusPerimeter;whiteSpace=wrap;html=1;align=center;fillColor=#FFCCCC;fontColor=#000000;strokeColor=#330000;fontSize=14;fontStyle=1" parent="1" vertex="1">
          <mxGeometry x="540" y="654.25" width="117.5" height="84.25" as="geometry" />
        </mxCell>
        <mxCell id="RrBwnPx38zNHqgzz5I3o-86" value="&lt;h2&gt;Skin &lt;br&gt;Diseases&lt;/h2&gt;" style="whiteSpace=wrap;html=1;align=center;fillColor=#99CCFF;fontColor=#000000;strokeColor=#000000;" parent="1" vertex="1">
          <mxGeometry x="540" y="822.5" width="130" height="60" as="geometry" />
        </mxCell>
        <mxCell id="RrBwnPx38zNHqgzz5I3o-87" value="" style="endArrow=none;html=1;rounded=0;strokeColor=#000000;strokeWidth=3;entryX=0.5;entryY=0;entryDx=0;entryDy=0;exitX=0.5;exitY=1;exitDx=0;exitDy=0;fontColor=#000000;" parent="1" source="RrBwnPx38zNHqgzz5I3o-4" target="RrBwnPx38zNHqgzz5I3o-85" edge="1">
          <mxGeometry relative="1" as="geometry">
            <mxPoint x="453.5" y="207.5" as="sourcePoint" />
            <mxPoint x="550" y="725.75" as="targetPoint" />
            <Array as="points" />
          </mxGeometry>
        </mxCell>
        <mxCell id="RrBwnPx38zNHqgzz5I3o-89" value="" style="endArrow=none;html=1;rounded=0;strokeColor=#000000;strokeWidth=3;exitX=0.5;exitY=1;exitDx=0;exitDy=0;fontColor=#000000;" parent="1" source="RrBwnPx38zNHqgzz5I3o-85" target="RrBwnPx38zNHqgzz5I3o-86" edge="1">
          <mxGeometry relative="1" as="geometry">
            <mxPoint x="732" y="460.5" as="sourcePoint" />
            <mxPoint x="784.7" y="565.52" as="targetPoint" />
            <Array as="points" />
          </mxGeometry>
        </mxCell>
        <mxCell id="RrBwnPx38zNHqgzz5I3o-91" value="&lt;font style=&quot;font-size: 14px;&quot;&gt;Issue&lt;/font&gt;" style="shape=rhombus;perimeter=rhombusPerimeter;whiteSpace=wrap;html=1;align=center;fillColor=#FFCCCC;fontColor=#000000;strokeColor=#330000;fontSize=14;fontStyle=1" parent="1" vertex="1">
          <mxGeometry x="654.43" y="408.5" width="99" height="71" as="geometry" />
        </mxCell>
        <mxCell id="RrBwnPx38zNHqgzz5I3o-92" value="&lt;h2&gt;Insurance&lt;/h2&gt;" style="whiteSpace=wrap;html=1;align=center;fillColor=#99CCFF;fontColor=#000000;strokeColor=#000000;" parent="1" vertex="1">
          <mxGeometry x="814.43" y="421" width="100" height="40" as="geometry" />
        </mxCell>
        <mxCell id="RrBwnPx38zNHqgzz5I3o-93" value="" style="endArrow=none;html=1;rounded=0;strokeColor=#000000;strokeWidth=3;entryX=0;entryY=0.5;entryDx=0;entryDy=0;exitX=1;exitY=1;exitDx=0;exitDy=0;fontColor=#000000;" parent="1" source="RrBwnPx38zNHqgzz5I3o-4" target="RrBwnPx38zNHqgzz5I3o-91" edge="1">
          <mxGeometry relative="1" as="geometry">
            <mxPoint x="942.5" y="283.6" as="sourcePoint" />
            <mxPoint x="1016.5" y="400.1" as="targetPoint" />
            <Array as="points" />
          </mxGeometry>
        </mxCell>
        <mxCell id="RrBwnPx38zNHqgzz5I3o-95" value="" style="endArrow=none;html=1;rounded=0;strokeColor=#000000;strokeWidth=3;exitX=1;exitY=0.5;exitDx=0;exitDy=0;fontColor=#000000;" parent="1" source="RrBwnPx38zNHqgzz5I3o-91" target="RrBwnPx38zNHqgzz5I3o-92" edge="1">
          <mxGeometry relative="1" as="geometry">
            <mxPoint x="936.43" y="527.6" as="sourcePoint" />
            <mxPoint x="989.13" y="632.62" as="targetPoint" />
          </mxGeometry>
        </mxCell>
        <mxCell id="RrBwnPx38zNHqgzz5I3o-105" value="Track_id" style="ellipse;whiteSpace=wrap;html=1;align=center;fontStyle=5;fillColor=#B3FF66;strokeWidth=1;fontColor=#000000;fontSize=18;strokeColor=#1A1A1A;" parent="1" vertex="1">
          <mxGeometry x="-700" y="5" width="110" height="50" as="geometry" />
        </mxCell>
        <mxCell id="RrBwnPx38zNHqgzz5I3o-106" value="location" style="ellipse;whiteSpace=wrap;html=1;align=center;fillColor=#B3FF66;strokeWidth=1;fontColor=#000000;fontStyle=1;fontSize=18;strokeColor=#1A1A1A;" parent="1" vertex="1">
          <mxGeometry x="-824" y="60" width="100" height="54" as="geometry" />
        </mxCell>
        <mxCell id="RrBwnPx38zNHqgzz5I3o-107" value="F_name" style="ellipse;whiteSpace=wrap;html=1;align=center;fillColor=#B3FF66;strokeWidth=1;fontColor=#000000;fontStyle=1;fontSize=18;strokeColor=#000000;" parent="1" vertex="1">
          <mxGeometry x="-740" y="240" width="120" height="47.5" as="geometry" />
        </mxCell>
        <mxCell id="RrBwnPx38zNHqgzz5I3o-108" value="" style="endArrow=none;html=1;rounded=0;entryX=0.25;entryY=0;entryDx=0;entryDy=0;exitX=0.5;exitY=1;exitDx=0;exitDy=0;strokeColor=#000000;strokeWidth=2;fontColor=#000000;" parent="1" source="RrBwnPx38zNHqgzz5I3o-107" target="RrBwnPx38zNHqgzz5I3o-40" edge="1">
          <mxGeometry relative="1" as="geometry">
            <mxPoint x="-640" y="265.5" as="sourcePoint" />
            <mxPoint x="-562.2599999999998" y="229.61200000000008" as="targetPoint" />
          </mxGeometry>
        </mxCell>
        <mxCell id="RrBwnPx38zNHqgzz5I3o-109" value="" style="endArrow=none;html=1;rounded=0;entryX=0.004;entryY=0.376;entryDx=0;entryDy=0;entryPerimeter=0;exitX=1;exitY=0.6;exitDx=0;exitDy=0;strokeColor=#000000;strokeWidth=2;exitPerimeter=0;fontColor=#000000;" parent="1" source="RrBwnPx38zNHqgzz5I3o-106" target="RrBwnPx38zNHqgzz5I3o-31" edge="1">
          <mxGeometry relative="1" as="geometry">
            <mxPoint x="-721.44" y="102" as="sourcePoint" />
            <mxPoint x="-661.44" y="70" as="targetPoint" />
          </mxGeometry>
        </mxCell>
        <mxCell id="RrBwnPx38zNHqgzz5I3o-110" value="" style="endArrow=none;html=1;rounded=0;entryX=0.25;entryY=0;entryDx=0;entryDy=0;exitX=0.5;exitY=1;exitDx=0;exitDy=0;strokeColor=#000000;strokeWidth=2;fontColor=#000000;" parent="1" source="RrBwnPx38zNHqgzz5I3o-105" target="RrBwnPx38zNHqgzz5I3o-31" edge="1">
          <mxGeometry relative="1" as="geometry">
            <mxPoint x="-697.02" y="42.47" as="sourcePoint" />
            <mxPoint x="-638.02" y="37.47" as="targetPoint" />
          </mxGeometry>
        </mxCell>
        <mxCell id="RrBwnPx38zNHqgzz5I3o-111" value="User_id" style="ellipse;whiteSpace=wrap;html=1;align=center;fontStyle=5;fillColor=#B3FF66;strokeWidth=1;fontColor=#000000;fontSize=18;strokeColor=#1A1A1A;" parent="1" vertex="1">
          <mxGeometry x="-262.5" y="27.5" width="120" height="50" as="geometry" />
        </mxCell>
        <mxCell id="RrBwnPx38zNHqgzz5I3o-112" value="" style="endArrow=none;html=1;rounded=0;entryX=0.25;entryY=0;entryDx=0;entryDy=0;exitX=0.5;exitY=1;exitDx=0;exitDy=0;strokeColor=#000000;strokeWidth=2;fontColor=#000000;" parent="1" source="RrBwnPx38zNHqgzz5I3o-111" target="RrBwnPx38zNHqgzz5I3o-2" edge="1">
          <mxGeometry relative="1" as="geometry">
            <mxPoint x="142.98000000000002" y="52.47" as="sourcePoint" />
            <mxPoint x="189" y="95" as="targetPoint" />
          </mxGeometry>
        </mxCell>
        <mxCell id="RrBwnPx38zNHqgzz5I3o-113" value="" style="endArrow=none;html=1;rounded=0;entryX=0.435;entryY=1.047;entryDx=0;entryDy=0;exitX=0.61;exitY=-0.004;exitDx=0;exitDy=0;strokeColor=#000000;strokeWidth=2;exitPerimeter=0;entryPerimeter=0;fontColor=#000000;" parent="1" source="RrBwnPx38zNHqgzz5I3o-116" target="RrBwnPx38zNHqgzz5I3o-2" edge="1">
          <mxGeometry relative="1" as="geometry">
            <mxPoint x="230" y="60" as="sourcePoint" />
            <mxPoint x="151.5" y="158" as="targetPoint" />
          </mxGeometry>
        </mxCell>
        <mxCell id="RrBwnPx38zNHqgzz5I3o-116" value="User name" style="ellipse;whiteSpace=wrap;html=1;align=center;fillColor=#B3FF66;strokeWidth=1;fontColor=#000000;fontStyle=1;fontSize=18;strokeColor=#1A1A1A;" parent="1" vertex="1">
          <mxGeometry x="-101.5" y="260" width="110" height="49" as="geometry" />
        </mxCell>
        <mxCell id="RrBwnPx38zNHqgzz5I3o-117" value="" style="endArrow=none;html=1;rounded=0;strokeColor=#000000;strokeWidth=2;entryX=0.5;entryY=0;entryDx=0;entryDy=0;exitX=0.5;exitY=1;exitDx=0;exitDy=0;fontColor=#000000;" parent="1" source="RrBwnPx38zNHqgzz5I3o-118" target="RrBwnPx38zNHqgzz5I3o-2" edge="1">
          <mxGeometry relative="1" as="geometry">
            <mxPoint x="-10" y="60" as="sourcePoint" />
            <mxPoint x="-1" y="160" as="targetPoint" />
          </mxGeometry>
        </mxCell>
        <mxCell id="RrBwnPx38zNHqgzz5I3o-118" value="Password" style="ellipse;whiteSpace=wrap;html=1;align=center;fillColor=#B3FF66;strokeWidth=1;fontColor=#000000;fontStyle=1;fontSize=18;strokeColor=#1A1A1A;" parent="1" vertex="1">
          <mxGeometry x="-54" y="31.5" width="110" height="49" as="geometry" />
        </mxCell>
        <mxCell id="RrBwnPx38zNHqgzz5I3o-119" value="" style="endArrow=none;html=1;rounded=0;entryX=0;entryY=0;entryDx=0;entryDy=0;exitX=0.5;exitY=1;exitDx=0;exitDy=0;strokeColor=#000000;strokeWidth=2;fontColor=#000000;" parent="1" source="RrBwnPx38zNHqgzz5I3o-120" target="RrBwnPx38zNHqgzz5I3o-40" edge="1">
          <mxGeometry relative="1" as="geometry">
            <mxPoint x="-620.52" y="239.95" as="sourcePoint" />
            <mxPoint x="-640" y="373" as="targetPoint" />
          </mxGeometry>
        </mxCell>
        <mxCell id="RrBwnPx38zNHqgzz5I3o-120" value="Friend_id" style="ellipse;whiteSpace=wrap;html=1;align=center;fontStyle=5;fillColor=#B3FF66;strokeWidth=1;fontColor=#000000;fontSize=18;strokeColor=#1A1A1A;" parent="1" vertex="1">
          <mxGeometry x="-816.72" y="287.5" width="110" height="47.5" as="geometry" />
        </mxCell>
        <mxCell id="RrBwnPx38zNHqgzz5I3o-121" value="Pet_id" style="ellipse;whiteSpace=wrap;html=1;align=center;fillColor=#B3FF66;strokeWidth=1;fontColor=#000000;fontStyle=1;fontSize=18;strokeColor=#000000;" parent="1" vertex="1">
          <mxGeometry x="-821" y="141" width="110" height="44" as="geometry" />
        </mxCell>
        <mxCell id="RrBwnPx38zNHqgzz5I3o-122" value="" style="endArrow=none;html=1;rounded=0;entryX=0;entryY=1;entryDx=0;entryDy=0;exitX=1;exitY=0.5;exitDx=0;exitDy=0;strokeColor=#000000;strokeWidth=2;fontColor=#000000;" parent="1" source="RrBwnPx38zNHqgzz5I3o-121" target="RrBwnPx38zNHqgzz5I3o-31" edge="1">
          <mxGeometry relative="1" as="geometry">
            <mxPoint x="-720" y="184" as="sourcePoint" />
            <mxPoint x="-676" y="307.5" as="targetPoint" />
          </mxGeometry>
        </mxCell>
        <mxCell id="RrBwnPx38zNHqgzz5I3o-124" value="" style="endArrow=none;html=1;rounded=0;entryX=0;entryY=0.5;entryDx=0;entryDy=0;exitX=1;exitY=0.5;exitDx=0;exitDy=0;strokeColor=#000000;strokeWidth=2;fontColor=#000000;" parent="1" source="IcnVIqFjb3jkJIIyJf2A-1" target="RrBwnPx38zNHqgzz5I3o-40" edge="1">
          <mxGeometry relative="1" as="geometry">
            <mxPoint x="-696.9999999999993" y="417.25" as="sourcePoint" />
            <mxPoint x="-661.44" y="358.5" as="targetPoint" />
          </mxGeometry>
        </mxCell>
        <mxCell id="RrBwnPx38zNHqgzz5I3o-125" value="" style="endArrow=none;html=1;rounded=0;strokeColor=#000000;strokeWidth=2;entryX=0.75;entryY=0;entryDx=0;entryDy=0;exitX=0.5;exitY=1;exitDx=0;exitDy=0;fontColor=#000000;" parent="1" source="RrBwnPx38zNHqgzz5I3o-126" target="RrBwnPx38zNHqgzz5I3o-2" edge="1">
          <mxGeometry relative="1" as="geometry">
            <mxPoint x="121.5" y="60" as="sourcePoint" />
            <mxPoint x="130.5" y="160" as="targetPoint" />
          </mxGeometry>
        </mxCell>
        <mxCell id="RrBwnPx38zNHqgzz5I3o-126" value="email" style="ellipse;whiteSpace=wrap;html=1;align=center;fillColor=#B3FF66;strokeWidth=1;fontColor=#000000;fontStyle=1;fontSize=18;strokeColor=#1A1A1A;" parent="1" vertex="1">
          <mxGeometry x="56" y="3.5" width="110" height="49" as="geometry" />
        </mxCell>
        <mxCell id="RrBwnPx38zNHqgzz5I3o-127" value="" style="endArrow=none;html=1;rounded=0;exitX=1;exitY=0;exitDx=0;exitDy=0;strokeColor=#000000;strokeWidth=2;entryX=0;entryY=0.75;entryDx=0;entryDy=0;fontColor=#000000;" parent="1" edge="1">
          <mxGeometry relative="1" as="geometry">
            <mxPoint x="-710.9197873502321" y="503.2486636110316" as="sourcePoint" />
            <mxPoint x="-617" y="427.5" as="targetPoint" />
          </mxGeometry>
        </mxCell>
        <mxCell id="RrBwnPx38zNHqgzz5I3o-128" value="email" style="ellipse;whiteSpace=wrap;html=1;align=center;fillColor=#B3FF66;strokeWidth=1;fontColor=#000000;fontStyle=1;fontSize=18;strokeColor=#1A1A1A;" parent="1" vertex="1">
          <mxGeometry x="-810" y="488.5" width="110" height="51.5" as="geometry" />
        </mxCell>
        <mxCell id="RrBwnPx38zNHqgzz5I3o-129" value="" style="endArrow=none;html=1;rounded=0;exitX=1;exitY=0;exitDx=0;exitDy=0;strokeColor=#000000;strokeWidth=2;entryX=0;entryY=0.75;entryDx=0;entryDy=0;fontColor=#000000;" parent="1" edge="1">
          <mxGeometry relative="1" as="geometry">
            <mxPoint x="-289.9197873502321" y="504.2486636110316" as="sourcePoint" />
            <mxPoint x="-196" y="428.5" as="targetPoint" />
          </mxGeometry>
        </mxCell>
        <mxCell id="RrBwnPx38zNHqgzz5I3o-130" value="S_name" style="ellipse;whiteSpace=wrap;html=1;align=center;fillColor=#B3FF66;strokeWidth=1;fontColor=#000000;fontStyle=1;fontSize=18;strokeColor=#1A1A1A;" parent="1" vertex="1">
          <mxGeometry x="-390" y="489.5" width="111" height="50.5" as="geometry" />
        </mxCell>
        <mxCell id="RrBwnPx38zNHqgzz5I3o-131" value="" style="endArrow=none;html=1;rounded=0;exitX=1;exitY=1;exitDx=0;exitDy=0;strokeColor=#000000;strokeWidth=2;entryX=0.106;entryY=0.02;entryDx=0;entryDy=0;entryPerimeter=0;fontColor=#000000;" parent="1" source="RrBwnPx38zNHqgzz5I3o-132" target="RrBwnPx38zNHqgzz5I3o-28" edge="1">
          <mxGeometry relative="1" as="geometry">
            <mxPoint x="-312.4197873502321" y="302.2486636110316" as="sourcePoint" />
            <mxPoint x="-218.5" y="226.5" as="targetPoint" />
          </mxGeometry>
        </mxCell>
        <mxCell id="RrBwnPx38zNHqgzz5I3o-132" value="email" style="ellipse;whiteSpace=wrap;html=1;align=center;fillColor=#B3FF66;strokeWidth=1;fontColor=#000000;fontStyle=1;fontSize=18;strokeColor=#1A1A1A;" parent="1" vertex="1">
          <mxGeometry x="-460" y="300" width="110" height="50" as="geometry" />
        </mxCell>
        <mxCell id="RrBwnPx38zNHqgzz5I3o-133" value="S_location" style="ellipse;whiteSpace=wrap;html=1;align=center;fillColor=#B3FF66;strokeWidth=1;fontColor=#000000;fontStyle=1;fontSize=18;strokeColor=#1A1A1A;" parent="1" vertex="1">
          <mxGeometry x="-250" y="489.5" width="107.5" height="50.5" as="geometry" />
        </mxCell>
        <mxCell id="RrBwnPx38zNHqgzz5I3o-134" value="" style="endArrow=none;html=1;rounded=0;exitX=0.5;exitY=0;exitDx=0;exitDy=0;strokeColor=#000000;strokeWidth=2;entryX=0.5;entryY=1;entryDx=0;entryDy=0;fontColor=#000000;" parent="1" source="RrBwnPx38zNHqgzz5I3o-133" target="RrBwnPx38zNHqgzz5I3o-28" edge="1">
          <mxGeometry relative="1" as="geometry">
            <mxPoint x="-172.41978735023213" y="556.2486636110316" as="sourcePoint" />
            <mxPoint x="-115" y="435.5" as="targetPoint" />
          </mxGeometry>
        </mxCell>
        <mxCell id="RrBwnPx38zNHqgzz5I3o-135" value="&lt;u&gt;S_id&lt;/u&gt;" style="ellipse;whiteSpace=wrap;html=1;align=center;fillColor=#B3FF66;strokeWidth=1;fontColor=#000000;fontStyle=1;fontSize=18;strokeColor=#1A1A1A;" parent="1" vertex="1">
          <mxGeometry x="-390" y="240" width="120" height="47.5" as="geometry" />
        </mxCell>
        <mxCell id="RrBwnPx38zNHqgzz5I3o-136" value="" style="endArrow=none;html=1;rounded=0;exitX=1;exitY=1;exitDx=0;exitDy=0;strokeColor=#000000;strokeWidth=2;entryX=0.25;entryY=0;entryDx=0;entryDy=0;fontColor=#000000;" parent="1" source="RrBwnPx38zNHqgzz5I3o-135" target="RrBwnPx38zNHqgzz5I3o-28" edge="1">
          <mxGeometry relative="1" as="geometry">
            <mxPoint x="-302.4197873502321" y="239.7486636110316" as="sourcePoint" />
            <mxPoint x="-181" y="326.5" as="targetPoint" />
          </mxGeometry>
        </mxCell>
        <mxCell id="RrBwnPx38zNHqgzz5I3o-137" value="Sh_location" style="ellipse;whiteSpace=wrap;html=1;align=center;fillColor=#B3FF66;strokeWidth=1;fontColor=#000000;fontStyle=1;fontSize=18;strokeColor=#1A1A1A;" parent="1" vertex="1">
          <mxGeometry x="-710.72" y="840" width="130" height="52.5" as="geometry" />
        </mxCell>
        <mxCell id="RrBwnPx38zNHqgzz5I3o-138" value="" style="endArrow=none;html=1;rounded=0;strokeColor=#000000;strokeWidth=2;entryX=0.881;entryY=1.03;entryDx=0;entryDy=0;entryPerimeter=0;fontColor=#000000;" parent="1" source="RrBwnPx38zNHqgzz5I3o-137" target="RrBwnPx38zNHqgzz5I3o-71" edge="1">
          <mxGeometry relative="1" as="geometry">
            <mxPoint x="-761" y="900" as="sourcePoint" />
            <mxPoint x="-679.5" y="828" as="targetPoint" />
          </mxGeometry>
        </mxCell>
        <mxCell id="RrBwnPx38zNHqgzz5I3o-139" value="&lt;u&gt;Sh_id&lt;/u&gt;" style="ellipse;whiteSpace=wrap;html=1;align=center;fillColor=#B3FF66;strokeWidth=1;fontColor=#000000;fontStyle=1;fontSize=18;strokeColor=#000000;" parent="1" vertex="1">
          <mxGeometry x="-716.5" y="700" width="116.5" height="50" as="geometry" />
        </mxCell>
        <mxCell id="RrBwnPx38zNHqgzz5I3o-140" value="" style="endArrow=none;html=1;rounded=0;exitX=1;exitY=0;exitDx=0;exitDy=0;strokeColor=#000000;strokeWidth=2;fontColor=#000000;" parent="1" target="RrBwnPx38zNHqgzz5I3o-139" edge="1">
          <mxGeometry relative="1" as="geometry">
            <mxPoint x="-716.4997873502322" y="787.4986636110316" as="sourcePoint" />
            <mxPoint x="-690" y="740" as="targetPoint" />
          </mxGeometry>
        </mxCell>
        <mxCell id="RrBwnPx38zNHqgzz5I3o-142" value="" style="endArrow=none;html=1;rounded=0;exitX=0.407;exitY=0.813;exitDx=0;exitDy=0;strokeColor=#000000;strokeWidth=2;entryX=0.384;entryY=0.036;entryDx=0;entryDy=0;exitPerimeter=0;entryPerimeter=0;fontColor=#000000;" parent="1" source="RrBwnPx38zNHqgzz5I3o-71" target="IcnVIqFjb3jkJIIyJf2A-17" edge="1">
          <mxGeometry relative="1" as="geometry">
            <mxPoint x="-699.9997873502322" y="917.4986636110316" as="sourcePoint" />
            <mxPoint x="-778.2" y="929.125" as="targetPoint" />
          </mxGeometry>
        </mxCell>
        <mxCell id="RrBwnPx38zNHqgzz5I3o-144" value="" style="endArrow=none;html=1;rounded=0;strokeColor=#000000;strokeWidth=2;entryX=0.75;entryY=0;entryDx=0;entryDy=0;exitX=0.207;exitY=0.886;exitDx=0;exitDy=0;exitPerimeter=0;fontColor=#000000;" parent="1" source="IcnVIqFjb3jkJIIyJf2A-16" target="RrBwnPx38zNHqgzz5I3o-66" edge="1">
          <mxGeometry relative="1" as="geometry">
            <mxPoint x="-492.6813257520962" y="929.7225303008386" as="sourcePoint" />
            <mxPoint x="-471.33000000000004" y="874" as="targetPoint" />
          </mxGeometry>
        </mxCell>
        <mxCell id="RrBwnPx38zNHqgzz5I3o-145" value="HP_location" style="ellipse;whiteSpace=wrap;html=1;align=center;fillColor=#B3FF66;strokeWidth=1;fontColor=#000000;fontStyle=1;fontSize=18;strokeColor=#1A1A1A;" parent="1" vertex="1">
          <mxGeometry x="-432.50000000000006" y="971.25" width="130" height="52.5" as="geometry" />
        </mxCell>
        <mxCell id="RrBwnPx38zNHqgzz5I3o-146" value="" style="endArrow=none;html=1;rounded=0;strokeColor=#000000;strokeWidth=2;entryX=1;entryY=0.5;entryDx=0;entryDy=0;exitX=0;exitY=1;exitDx=0;exitDy=0;fontColor=#000000;" parent="1" source="RrBwnPx38zNHqgzz5I3o-145" target="RrBwnPx38zNHqgzz5I3o-66" edge="1">
          <mxGeometry relative="1" as="geometry">
            <mxPoint x="-430.33000000000004" y="1031.25" as="sourcePoint" />
            <mxPoint x="-458" y="1094.25" as="targetPoint" />
          </mxGeometry>
        </mxCell>
        <mxCell id="RrBwnPx38zNHqgzz5I3o-147" value="&lt;u&gt;HP_id&lt;/u&gt;" style="ellipse;whiteSpace=wrap;html=1;align=center;fillColor=#B3FF66;strokeWidth=1;fontColor=#000000;fontStyle=1;fontSize=18;strokeColor=#000000;" parent="1" vertex="1">
          <mxGeometry x="-730" y="1100" width="113.5" height="50" as="geometry" />
        </mxCell>
        <mxCell id="RrBwnPx38zNHqgzz5I3o-148" value="" style="endArrow=none;html=1;rounded=0;strokeColor=#000000;strokeWidth=2;entryX=1;entryY=0.5;entryDx=0;entryDy=0;fontColor=#000000;" parent="1" edge="1">
          <mxGeometry relative="1" as="geometry">
            <mxPoint x="-600" y="1060" as="sourcePoint" />
            <mxPoint x="-661.5" y="1100.5" as="targetPoint" />
          </mxGeometry>
        </mxCell>
        <mxCell id="RrBwnPx38zNHqgzz5I3o-149" value="Status" style="ellipse;whiteSpace=wrap;html=1;align=center;fillColor=#B3FF66;strokeWidth=1;fontColor=#000000;fontStyle=1;fontSize=18;strokeColor=#1A1A1A;" parent="1" vertex="1">
          <mxGeometry x="-549" y="1097.5" width="100" height="40" as="geometry" />
        </mxCell>
        <mxCell id="RrBwnPx38zNHqgzz5I3o-150" value="" style="endArrow=none;html=1;rounded=0;strokeColor=#000000;strokeWidth=2;entryX=1;entryY=0.5;entryDx=0;entryDy=0;exitX=0.75;exitY=1;exitDx=0;exitDy=0;fontColor=#000000;" parent="1" source="RrBwnPx38zNHqgzz5I3o-66" edge="1">
          <mxGeometry relative="1" as="geometry">
            <mxPoint x="-432.5" y="1057.5" as="sourcePoint" />
            <mxPoint x="-494" y="1098" as="targetPoint" />
          </mxGeometry>
        </mxCell>
        <mxCell id="RrBwnPx38zNHqgzz5I3o-151" value="specialization" style="ellipse;whiteSpace=wrap;html=1;align=center;fillColor=#B3FF66;strokeWidth=1;fontColor=#000000;fontStyle=1;fontSize=18;strokeColor=#000000;" parent="1" vertex="1">
          <mxGeometry x="10" y="560" width="140" height="63.38" as="geometry" />
        </mxCell>
        <mxCell id="RrBwnPx38zNHqgzz5I3o-152" value="" style="endArrow=none;html=1;rounded=0;strokeColor=#000000;strokeWidth=2;entryX=0.75;entryY=0;entryDx=0;entryDy=0;exitX=0;exitY=1;exitDx=0;exitDy=0;fontColor=#000000;" parent="1" source="RrBwnPx38zNHqgzz5I3o-151" target="RrBwnPx38zNHqgzz5I3o-22" edge="1">
          <mxGeometry relative="1" as="geometry">
            <mxPoint x="22.16999999999996" y="630.88" as="sourcePoint" />
            <mxPoint x="-51.5" y="632.63" as="targetPoint" />
          </mxGeometry>
        </mxCell>
        <mxCell id="RrBwnPx38zNHqgzz5I3o-153" value="V_location" style="ellipse;whiteSpace=wrap;html=1;align=center;fillColor=#B3FF66;strokeWidth=1;fontColor=#000000;fontStyle=1;fontSize=18;strokeColor=#1A1A1A;" parent="1" vertex="1">
          <mxGeometry x="-246.00000000000006" y="593.25" width="130" height="52.5" as="geometry" />
        </mxCell>
        <mxCell id="RrBwnPx38zNHqgzz5I3o-154" value="" style="endArrow=none;html=1;rounded=0;strokeColor=#000000;strokeWidth=2;entryX=0;entryY=0;entryDx=0;entryDy=0;exitX=0.622;exitY=1.015;exitDx=0;exitDy=0;exitPerimeter=0;fontColor=#000000;" parent="1" source="RrBwnPx38zNHqgzz5I3o-153" target="RrBwnPx38zNHqgzz5I3o-22" edge="1">
          <mxGeometry relative="1" as="geometry">
            <mxPoint x="-243.83000000000004" y="653.25" as="sourcePoint" />
            <mxPoint x="-317.5" y="655" as="targetPoint" />
          </mxGeometry>
        </mxCell>
        <mxCell id="RrBwnPx38zNHqgzz5I3o-155" value="V_name" style="ellipse;whiteSpace=wrap;html=1;align=center;fillColor=#B3FF66;strokeWidth=1;fontColor=#000000;fontStyle=1;fontSize=18;strokeColor=#1A1A1A;" parent="1" vertex="1">
          <mxGeometry x="-331.50000000000006" y="735" width="130" height="52.5" as="geometry" />
        </mxCell>
        <mxCell id="RrBwnPx38zNHqgzz5I3o-156" value="" style="endArrow=none;html=1;rounded=0;strokeColor=#000000;strokeWidth=2;entryX=0;entryY=0.75;entryDx=0;entryDy=0;exitX=0.972;exitY=0.311;exitDx=0;exitDy=0;exitPerimeter=0;fontColor=#000000;" parent="1" source="RrBwnPx38zNHqgzz5I3o-155" target="RrBwnPx38zNHqgzz5I3o-22" edge="1">
          <mxGeometry relative="1" as="geometry">
            <mxPoint x="-300.33000000000004" y="798.5" as="sourcePoint" />
            <mxPoint x="-176.5" y="828.25" as="targetPoint" />
          </mxGeometry>
        </mxCell>
        <mxCell id="RrBwnPx38zNHqgzz5I3o-157" value="V_email" style="ellipse;whiteSpace=wrap;html=1;align=center;fillColor=#B3FF66;strokeWidth=1;fontColor=#000000;fontStyle=1;fontSize=18;strokeColor=#1A1A1A;" parent="1" vertex="1">
          <mxGeometry x="-357.75000000000006" y="813.4" width="130" height="52.5" as="geometry" />
        </mxCell>
        <mxCell id="RrBwnPx38zNHqgzz5I3o-158" value="" style="endArrow=none;html=1;rounded=0;strokeColor=#000000;strokeWidth=2;exitX=0.972;exitY=0.311;exitDx=0;exitDy=0;exitPerimeter=0;entryX=0.145;entryY=0.996;entryDx=0;entryDy=0;entryPerimeter=0;fontColor=#000000;" parent="1" source="RrBwnPx38zNHqgzz5I3o-157" target="RrBwnPx38zNHqgzz5I3o-22" edge="1">
          <mxGeometry relative="1" as="geometry">
            <mxPoint x="-326.58000000000004" y="876.9" as="sourcePoint" />
            <mxPoint x="-100" y="710" as="targetPoint" />
          </mxGeometry>
        </mxCell>
        <mxCell id="RrBwnPx38zNHqgzz5I3o-159" value="&lt;u&gt;V_id&lt;/u&gt;" style="ellipse;whiteSpace=wrap;html=1;align=center;fillColor=#B3FF66;strokeWidth=1;fontColor=#000000;fontStyle=1;fontSize=18;strokeColor=#1A1A1A;" parent="1" vertex="1">
          <mxGeometry x="-282.50000000000006" y="880" width="130" height="52.5" as="geometry" />
        </mxCell>
        <mxCell id="RrBwnPx38zNHqgzz5I3o-160" value="" style="endArrow=none;html=1;rounded=0;strokeColor=#000000;strokeWidth=2;exitX=0.972;exitY=0.311;exitDx=0;exitDy=0;exitPerimeter=0;entryX=0.367;entryY=1.088;entryDx=0;entryDy=0;entryPerimeter=0;fontColor=#000000;" parent="1" source="RrBwnPx38zNHqgzz5I3o-159" target="RrBwnPx38zNHqgzz5I3o-22" edge="1">
          <mxGeometry relative="1" as="geometry">
            <mxPoint x="-275.71000000000004" y="948.5" as="sourcePoint" />
            <mxPoint x="-55.13" y="794.6" as="targetPoint" />
          </mxGeometry>
        </mxCell>
        <mxCell id="RrBwnPx38zNHqgzz5I3o-162" value="" style="endArrow=none;html=1;rounded=0;strokeColor=#000000;strokeWidth=2;entryX=1;entryY=0.5;entryDx=0;entryDy=0;exitX=0;exitY=0.5;exitDx=0;exitDy=0;fontColor=#000000;" parent="1" source="IcnVIqFjb3jkJIIyJf2A-14" target="RrBwnPx38zNHqgzz5I3o-22" edge="1">
          <mxGeometry relative="1" as="geometry">
            <mxPoint x="40" y="688.5319999999999" as="sourcePoint" />
            <mxPoint x="166" y="744.25" as="targetPoint" />
          </mxGeometry>
        </mxCell>
        <mxCell id="RrBwnPx38zNHqgzz5I3o-163" value="&lt;u&gt;C_id&lt;/u&gt;" style="ellipse;whiteSpace=wrap;html=1;align=center;fillColor=#B3FF66;strokeWidth=1;fontColor=#000000;fontStyle=1;fontSize=18;strokeColor=#1A1A1A;" parent="1" vertex="1">
          <mxGeometry x="-290.00000000000006" y="1009.31" width="130" height="52.5" as="geometry" />
        </mxCell>
        <mxCell id="RrBwnPx38zNHqgzz5I3o-164" value="" style="endArrow=none;html=1;rounded=0;strokeColor=#000000;strokeWidth=2;exitX=0.602;exitY=0.058;exitDx=0;exitDy=0;exitPerimeter=0;entryX=0;entryY=0.75;entryDx=0;entryDy=0;fontColor=#000000;" parent="1" source="RrBwnPx38zNHqgzz5I3o-163" target="RrBwnPx38zNHqgzz5I3o-44" edge="1">
          <mxGeometry relative="1" as="geometry">
            <mxPoint x="-229.33000000000004" y="1134.06" as="sourcePoint" />
            <mxPoint x="-8.75" y="980.1600000000001" as="targetPoint" />
          </mxGeometry>
        </mxCell>
        <mxCell id="RrBwnPx38zNHqgzz5I3o-166" value="" style="endArrow=none;html=1;rounded=0;strokeColor=#000000;strokeWidth=2;entryX=0.173;entryY=0.999;entryDx=0;entryDy=0;exitX=0.585;exitY=0.024;exitDx=0;exitDy=0;exitPerimeter=0;entryPerimeter=0;fontColor=#000000;" parent="1" source="IcnVIqFjb3jkJIIyJf2A-15" target="RrBwnPx38zNHqgzz5I3o-44" edge="1">
          <mxGeometry relative="1" as="geometry">
            <mxPoint x="-160.07000000000016" y="1087.1525000000001" as="sourcePoint" />
            <mxPoint x="170" y="971.41" as="targetPoint" />
          </mxGeometry>
        </mxCell>
        <mxCell id="RrBwnPx38zNHqgzz5I3o-167" value="Expiration " style="ellipse;whiteSpace=wrap;html=1;align=center;fillColor=#B3FF66;strokeWidth=1;fontColor=#000000;fontStyle=1;fontSize=18;strokeColor=#1A1A1A;" parent="1" vertex="1">
          <mxGeometry x="-90.00000000000006" y="1085" width="130" height="52.5" as="geometry" />
        </mxCell>
        <mxCell id="RrBwnPx38zNHqgzz5I3o-168" value="" style="endArrow=none;html=1;rounded=0;strokeColor=#000000;strokeWidth=2;exitX=0.325;exitY=0.037;exitDx=0;exitDy=0;exitPerimeter=0;entryX=0.75;entryY=1;entryDx=0;entryDy=0;fontColor=#000000;" parent="1" source="RrBwnPx38zNHqgzz5I3o-167" target="RrBwnPx38zNHqgzz5I3o-44" edge="1">
          <mxGeometry relative="1" as="geometry">
            <mxPoint x="91.16999999999996" y="1161" as="sourcePoint" />
            <mxPoint x="71.75" y="1023.69" as="targetPoint" />
          </mxGeometry>
        </mxCell>
        <mxCell id="RrBwnPx38zNHqgzz5I3o-169" value="V_id" style="ellipse;whiteSpace=wrap;html=1;align=center;fillColor=#B3FF66;strokeWidth=1;fontColor=#000000;fontStyle=1;fontSize=18;strokeColor=#1A1A1A;" parent="1" vertex="1">
          <mxGeometry x="9.999999999999957" y="1023.75" width="130" height="52.5" as="geometry" />
        </mxCell>
        <mxCell id="RrBwnPx38zNHqgzz5I3o-170" value="" style="endArrow=none;html=1;rounded=0;strokeColor=#000000;strokeWidth=2;exitX=0;exitY=0;exitDx=0;exitDy=0;entryX=1;entryY=0.5;entryDx=0;entryDy=0;fontColor=#000000;" parent="1" source="RrBwnPx38zNHqgzz5I3o-169" target="RrBwnPx38zNHqgzz5I3o-44" edge="1">
          <mxGeometry relative="1" as="geometry">
            <mxPoint x="60.589999999999975" y="1023.5" as="sourcePoint" />
            <mxPoint x="252.3" y="802" as="targetPoint" />
          </mxGeometry>
        </mxCell>
        <mxCell id="RrBwnPx38zNHqgzz5I3o-171" value="&lt;u&gt;FS_id&lt;/u&gt;" style="ellipse;whiteSpace=wrap;html=1;align=center;fillColor=#B3FF66;strokeWidth=1;fontColor=#000000;fontStyle=1;fontSize=18;strokeColor=#1A1A1A;" parent="1" vertex="1">
          <mxGeometry x="-8.750000000000043" y="816.85" width="130" height="52.5" as="geometry" />
        </mxCell>
        <mxCell id="RrBwnPx38zNHqgzz5I3o-172" value="" style="endArrow=none;html=1;rounded=0;strokeColor=#000000;strokeWidth=2;exitX=0.617;exitY=-0.007;exitDx=0;exitDy=0;entryX=0;entryY=0.5;entryDx=0;entryDy=0;exitPerimeter=0;fontColor=#000000;" parent="1" source="RrBwnPx38zNHqgzz5I3o-171" target="RrBwnPx38zNHqgzz5I3o-61" edge="1">
          <mxGeometry relative="1" as="geometry">
            <mxPoint x="41.83999999999997" y="816.6" as="sourcePoint" />
            <mxPoint x="116.87" y="756.5000000000001" as="targetPoint" />
          </mxGeometry>
        </mxCell>
        <mxCell id="RrBwnPx38zNHqgzz5I3o-173" value="FS_name" style="ellipse;whiteSpace=wrap;html=1;align=center;fillColor=#B3FF66;strokeWidth=1;fontColor=#000000;fontStyle=1;fontSize=18;strokeColor=#1A1A1A;" parent="1" vertex="1">
          <mxGeometry x="49.99999999999996" y="895" width="130" height="52.5" as="geometry" />
        </mxCell>
        <mxCell id="RrBwnPx38zNHqgzz5I3o-174" value="" style="endArrow=none;html=1;rounded=0;strokeColor=#000000;strokeWidth=2;exitX=0.5;exitY=0;exitDx=0;exitDy=0;entryX=0.25;entryY=1;entryDx=0;entryDy=0;fontColor=#000000;" parent="1" source="RrBwnPx38zNHqgzz5I3o-173" target="RrBwnPx38zNHqgzz5I3o-61" edge="1">
          <mxGeometry relative="1" as="geometry">
            <mxPoint x="95.58999999999997" y="888.36" as="sourcePoint" />
            <mxPoint x="163.625" y="791.3800000000001" as="targetPoint" />
          </mxGeometry>
        </mxCell>
        <mxCell id="RrBwnPx38zNHqgzz5I3o-175" value="FS_location" style="ellipse;whiteSpace=wrap;html=1;align=center;fillColor=#B3FF66;strokeWidth=1;fontColor=#000000;fontStyle=1;fontSize=18;strokeColor=#1A1A1A;" parent="1" vertex="1">
          <mxGeometry x="142.99999999999994" y="956.81" width="130" height="52.5" as="geometry" />
        </mxCell>
        <mxCell id="RrBwnPx38zNHqgzz5I3o-176" value="" style="endArrow=none;html=1;rounded=0;strokeColor=#000000;strokeWidth=2;exitX=0.5;exitY=0;exitDx=0;exitDy=0;entryX=0.5;entryY=1;entryDx=0;entryDy=0;fontColor=#000000;" parent="1" source="RrBwnPx38zNHqgzz5I3o-175" target="RrBwnPx38zNHqgzz5I3o-61" edge="1">
          <mxGeometry relative="1" as="geometry">
            <mxPoint x="188.58999999999997" y="950.1700000000001" as="sourcePoint" />
            <mxPoint x="272" y="874.81" as="targetPoint" />
          </mxGeometry>
        </mxCell>
        <mxCell id="RrBwnPx38zNHqgzz5I3o-178" value="" style="endArrow=none;html=1;rounded=0;strokeColor=#000000;strokeWidth=2;exitX=0.28;exitY=0.01;exitDx=0;exitDy=0;entryX=1;entryY=1;entryDx=0;entryDy=0;exitPerimeter=0;fontColor=#000000;" parent="1" source="IcnVIqFjb3jkJIIyJf2A-13" target="RrBwnPx38zNHqgzz5I3o-61" edge="1">
          <mxGeometry relative="1" as="geometry">
            <mxPoint x="315" y="835.79" as="sourcePoint" />
            <mxPoint x="316.5" y="749.6" as="targetPoint" />
          </mxGeometry>
        </mxCell>
        <mxCell id="RrBwnPx38zNHqgzz5I3o-179" value="&lt;u&gt;SD_id&lt;/u&gt;" style="ellipse;whiteSpace=wrap;html=1;align=center;fillColor=#B3FF66;strokeWidth=1;fontColor=#000000;fontStyle=1;fontSize=18;strokeColor=#1A1A1A;" parent="1" vertex="1">
          <mxGeometry x="379.99999999999994" y="997.9999999999999" width="130" height="52.5" as="geometry" />
        </mxCell>
        <mxCell id="RrBwnPx38zNHqgzz5I3o-180" value="" style="endArrow=none;html=1;rounded=0;strokeColor=#000000;strokeWidth=2;exitX=0.5;exitY=0;exitDx=0;exitDy=0;entryX=0;entryY=1;entryDx=0;entryDy=0;fontColor=#000000;" parent="1" source="RrBwnPx38zNHqgzz5I3o-179" target="RrBwnPx38zNHqgzz5I3o-86" edge="1">
          <mxGeometry relative="1" as="geometry">
            <mxPoint x="345.59" y="1046.77" as="sourcePoint" />
            <mxPoint x="364" y="909.6" as="targetPoint" />
          </mxGeometry>
        </mxCell>
        <mxCell id="RrBwnPx38zNHqgzz5I3o-181" value="SD_name" style="ellipse;whiteSpace=wrap;html=1;align=center;fillColor=#B3FF66;strokeWidth=1;fontColor=#000000;fontStyle=1;fontSize=18;strokeColor=#1A1A1A;" parent="1" vertex="1">
          <mxGeometry x="519" y="1044.23" width="130" height="52.5" as="geometry" />
        </mxCell>
        <mxCell id="RrBwnPx38zNHqgzz5I3o-182" value="" style="endArrow=none;html=1;rounded=0;strokeColor=#000000;strokeWidth=2;exitX=0.5;exitY=0;exitDx=0;exitDy=0;entryX=0.5;entryY=1;entryDx=0;entryDy=0;fontColor=#000000;" parent="1" source="RrBwnPx38zNHqgzz5I3o-181" target="RrBwnPx38zNHqgzz5I3o-86" edge="1">
          <mxGeometry relative="1" as="geometry">
            <mxPoint x="484.09" y="1086.77" as="sourcePoint" />
            <mxPoint x="541.5" y="988" as="targetPoint" />
          </mxGeometry>
        </mxCell>
        <mxCell id="RrBwnPx38zNHqgzz5I3o-183" value="SD_description" style="ellipse;whiteSpace=wrap;html=1;align=center;fillColor=#B3FF66;strokeWidth=1;fontColor=#000000;fontStyle=1;fontSize=18;strokeColor=#1A1A1A;" parent="1" vertex="1">
          <mxGeometry x="641" y="984" width="151.5" height="60.23" as="geometry" />
        </mxCell>
        <mxCell id="RrBwnPx38zNHqgzz5I3o-184" value="" style="endArrow=none;html=1;rounded=0;strokeColor=#000000;strokeWidth=2;exitX=0.5;exitY=0;exitDx=0;exitDy=0;entryX=0.75;entryY=1;entryDx=0;entryDy=0;fontColor=#000000;" parent="1" source="RrBwnPx38zNHqgzz5I3o-183" target="RrBwnPx38zNHqgzz5I3o-86" edge="1">
          <mxGeometry relative="1" as="geometry">
            <mxPoint x="594.0899999999999" y="1023.13" as="sourcePoint" />
            <mxPoint x="578" y="884.36" as="targetPoint" />
          </mxGeometry>
        </mxCell>
        <mxCell id="RrBwnPx38zNHqgzz5I3o-186" value="" style="endArrow=none;html=1;rounded=0;strokeColor=#000000;strokeWidth=2;entryX=1;entryY=0.5;entryDx=0;entryDy=0;exitX=0.309;exitY=0.024;exitDx=0;exitDy=0;exitPerimeter=0;fontColor=#000000;" parent="1" source="IcnVIqFjb3jkJIIyJf2A-12" target="RrBwnPx38zNHqgzz5I3o-86" edge="1">
          <mxGeometry relative="1" as="geometry">
            <mxPoint x="744.620804217348" y="901.6157418808793" as="sourcePoint" />
            <mxPoint x="669.5" y="802.09" as="targetPoint" />
          </mxGeometry>
        </mxCell>
        <mxCell id="RrBwnPx38zNHqgzz5I3o-187" value="" style="endArrow=none;html=1;rounded=0;exitX=0.398;exitY=1.02;exitDx=0;exitDy=0;strokeColor=#000000;strokeWidth=2;exitPerimeter=0;entryX=0;entryY=0;entryDx=0;entryDy=0;fontColor=#000000;" parent="1" source="RrBwnPx38zNHqgzz5I3o-188" target="RrBwnPx38zNHqgzz5I3o-4" edge="1">
          <mxGeometry relative="1" as="geometry">
            <mxPoint x="405.5" y="40" as="sourcePoint" />
            <mxPoint x="238.5" y="176.5" as="targetPoint" />
          </mxGeometry>
        </mxCell>
        <mxCell id="RrBwnPx38zNHqgzz5I3o-188" value="&lt;u&gt;PC_id&lt;/u&gt;" style="ellipse;whiteSpace=wrap;html=1;align=center;fillColor=#B3FF66;strokeWidth=1;fontColor=#000000;fontStyle=1;fontSize=18;strokeColor=#000000;" parent="1" vertex="1">
          <mxGeometry x="278.25" y="31.5" width="125.5" height="49" as="geometry" />
        </mxCell>
        <mxCell id="RrBwnPx38zNHqgzz5I3o-189" value="PC_Category" style="ellipse;whiteSpace=wrap;html=1;align=center;fillColor=#B3FF66;strokeWidth=1;fontColor=#000000;fontStyle=1;fontSize=18;strokeColor=#1A1A1A;" parent="1" vertex="1">
          <mxGeometry x="427" y="76.5" width="150" height="49.5" as="geometry" />
        </mxCell>
        <mxCell id="RrBwnPx38zNHqgzz5I3o-190" value="" style="endArrow=none;html=1;rounded=0;exitX=0.398;exitY=1.02;exitDx=0;exitDy=0;strokeColor=#000000;strokeWidth=2;exitPerimeter=0;entryX=0.5;entryY=0;entryDx=0;entryDy=0;fontColor=#000000;" parent="1" source="RrBwnPx38zNHqgzz5I3o-189" target="RrBwnPx38zNHqgzz5I3o-4" edge="1">
          <mxGeometry relative="1" as="geometry">
            <mxPoint x="535.5" y="30.5" as="sourcePoint" />
            <mxPoint x="506" y="158.5" as="targetPoint" />
          </mxGeometry>
        </mxCell>
        <mxCell id="RrBwnPx38zNHqgzz5I3o-191" value="PC_Services" style="ellipse;whiteSpace=wrap;html=1;align=center;fillColor=#B3FF66;strokeWidth=1;fontColor=#000000;fontStyle=1;fontSize=18;strokeColor=#1A1A1A;" parent="1" vertex="1">
          <mxGeometry x="239.99999999999994" y="228.50000000000003" width="130" height="52.5" as="geometry" />
        </mxCell>
        <mxCell id="RrBwnPx38zNHqgzz5I3o-192" value="" style="endArrow=none;html=1;rounded=0;strokeColor=#000000;strokeWidth=2;exitX=0.5;exitY=0;exitDx=0;exitDy=0;entryX=0;entryY=0.75;entryDx=0;entryDy=0;fontColor=#000000;" parent="1" source="RrBwnPx38zNHqgzz5I3o-191" target="RrBwnPx38zNHqgzz5I3o-4" edge="1">
          <mxGeometry relative="1" as="geometry">
            <mxPoint x="254.08999999999997" y="244.96000000000004" as="sourcePoint" />
            <mxPoint x="337.5" y="169.60000000000002" as="targetPoint" />
          </mxGeometry>
        </mxCell>
        <mxCell id="RrBwnPx38zNHqgzz5I3o-193" value="&lt;u&gt;Tr_id&lt;/u&gt;" style="ellipse;whiteSpace=wrap;html=1;align=center;fillColor=#B3FF66;strokeWidth=1;fontColor=#000000;fontStyle=1;fontSize=18;strokeColor=#1A1A1A;" parent="1" vertex="1">
          <mxGeometry x="801" y="240.00000000000003" width="130" height="52.5" as="geometry" />
        </mxCell>
        <mxCell id="RrBwnPx38zNHqgzz5I3o-194" value="" style="endArrow=none;html=1;rounded=0;strokeColor=#000000;strokeWidth=2;exitX=0.5;exitY=0;exitDx=0;exitDy=0;entryX=0.75;entryY=1;entryDx=0;entryDy=0;fontColor=#000000;" parent="1" source="RrBwnPx38zNHqgzz5I3o-193" target="RrBwnPx38zNHqgzz5I3o-74" edge="1">
          <mxGeometry relative="1" as="geometry">
            <mxPoint x="594.0899999999999" y="148.36000000000004" as="sourcePoint" />
            <mxPoint x="735.5" y="172.9" as="targetPoint" />
          </mxGeometry>
        </mxCell>
        <mxCell id="RrBwnPx38zNHqgzz5I3o-195" value="Tr_Name" style="ellipse;whiteSpace=wrap;html=1;align=center;fillColor=#B3FF66;strokeWidth=1;fontColor=#000000;fontStyle=1;fontSize=18;strokeColor=#1A1A1A;" parent="1" vertex="1">
          <mxGeometry x="540" y="17.50000000000003" width="130" height="52.5" as="geometry" />
        </mxCell>
        <mxCell id="RrBwnPx38zNHqgzz5I3o-196" value="" style="endArrow=none;html=1;rounded=0;strokeColor=#000000;strokeWidth=2;exitX=1;exitY=0.5;exitDx=0;exitDy=0;entryX=0;entryY=0.25;entryDx=0;entryDy=0;fontColor=#000000;" parent="1" source="RrBwnPx38zNHqgzz5I3o-195" target="RrBwnPx38zNHqgzz5I3o-74" edge="1">
          <mxGeometry relative="1" as="geometry">
            <mxPoint x="549.8399999999999" y="69.86000000000004" as="sourcePoint" />
            <mxPoint x="700.75" y="73.5" as="targetPoint" />
          </mxGeometry>
        </mxCell>
        <mxCell id="RrBwnPx38zNHqgzz5I3o-198" value="" style="endArrow=none;html=1;rounded=0;strokeColor=#000000;strokeWidth=2;exitX=0.594;exitY=1.007;exitDx=0;exitDy=0;entryX=0.25;entryY=0;entryDx=0;entryDy=0;exitPerimeter=0;fontColor=#000000;" parent="1" source="IcnVIqFjb3jkJIIyJf2A-7" target="RrBwnPx38zNHqgzz5I3o-74" edge="1">
          <mxGeometry relative="1" as="geometry">
            <mxPoint x="811.1435000000001" y="72.84349999999995" as="sourcePoint" />
            <mxPoint x="720" y="110" as="targetPoint" />
          </mxGeometry>
        </mxCell>
        <mxCell id="RrBwnPx38zNHqgzz5I3o-199" value="Tr_email" style="ellipse;whiteSpace=wrap;html=1;align=center;fillColor=#B3FF66;strokeWidth=1;fontColor=#000000;fontStyle=1;fontSize=18;strokeColor=#1A1A1A;" parent="1" vertex="1">
          <mxGeometry x="869.43" y="60.00000000000003" width="130" height="52.5" as="geometry" />
        </mxCell>
        <mxCell id="RrBwnPx38zNHqgzz5I3o-200" value="" style="endArrow=none;html=1;rounded=0;strokeColor=#000000;strokeWidth=2;exitX=0.5;exitY=1;exitDx=0;exitDy=0;entryX=0.75;entryY=0;entryDx=0;entryDy=0;fontColor=#000000;" parent="1" source="IcnVIqFjb3jkJIIyJf2A-8" target="RrBwnPx38zNHqgzz5I3o-92" edge="1">
          <mxGeometry relative="1" as="geometry">
            <mxPoint x="944.4299999999998" y="381" as="sourcePoint" />
            <mxPoint x="876.43" y="425.5" as="targetPoint" />
          </mxGeometry>
        </mxCell>
        <mxCell id="RrBwnPx38zNHqgzz5I3o-201" value="&lt;u&gt;B_id&lt;/u&gt;" style="ellipse;whiteSpace=wrap;html=1;align=center;fillColor=#B3FF66;strokeWidth=1;fontColor=#000000;fontStyle=1;fontSize=18;strokeColor=#1A1A1A;" parent="1" vertex="1">
          <mxGeometry x="208.5" y="397" width="130" height="53.41" as="geometry" />
        </mxCell>
        <mxCell id="RrBwnPx38zNHqgzz5I3o-202" value="" style="endArrow=none;html=1;rounded=0;strokeColor=#000000;strokeWidth=2;exitX=0;exitY=0.5;exitDx=0;exitDy=0;entryX=0.5;entryY=1;entryDx=0;entryDy=0;fontColor=#000000;" parent="1" source="RrBwnPx38zNHqgzz5I3o-80" target="RrBwnPx38zNHqgzz5I3o-201" edge="1">
          <mxGeometry relative="1" as="geometry">
            <mxPoint x="254.08999999999997" y="434.27" as="sourcePoint" />
            <mxPoint x="311.5" y="335.5" as="targetPoint" />
          </mxGeometry>
        </mxCell>
        <mxCell id="RrBwnPx38zNHqgzz5I3o-204" value="" style="endArrow=none;html=1;rounded=0;strokeColor=#000000;strokeWidth=2;exitX=0.608;exitY=0.053;exitDx=0;exitDy=0;entryX=0;entryY=1;entryDx=0;entryDy=0;exitPerimeter=0;fontColor=#000000;" parent="1" source="IcnVIqFjb3jkJIIyJf2A-11" target="RrBwnPx38zNHqgzz5I3o-80" edge="1">
          <mxGeometry relative="1" as="geometry">
            <mxPoint x="262.25" y="557.5974999999999" as="sourcePoint" />
            <mxPoint x="263" y="545.38" as="targetPoint" />
          </mxGeometry>
        </mxCell>
        <mxCell id="RrBwnPx38zNHqgzz5I3o-205" value="B_description" style="ellipse;whiteSpace=wrap;html=1;align=center;fillColor=#B3FF66;strokeWidth=1;fontColor=#000000;fontStyle=1;fontSize=18;strokeColor=#1A1A1A;" parent="1" vertex="1">
          <mxGeometry x="265.25" y="678.27" width="151.5" height="60.23" as="geometry" />
        </mxCell>
        <mxCell id="RrBwnPx38zNHqgzz5I3o-206" value="" style="endArrow=none;html=1;rounded=0;strokeColor=#000000;strokeWidth=2;exitX=0.5;exitY=0;exitDx=0;exitDy=0;entryX=0.5;entryY=1;entryDx=0;entryDy=0;fontColor=#000000;" parent="1" source="RrBwnPx38zNHqgzz5I3o-205" target="RrBwnPx38zNHqgzz5I3o-80" edge="1">
          <mxGeometry relative="1" as="geometry">
            <mxPoint x="308.8399999999999" y="671.63" as="sourcePoint" />
            <mxPoint x="410" y="540" as="targetPoint" />
          </mxGeometry>
        </mxCell>
        <mxCell id="RrBwnPx38zNHqgzz5I3o-207" value="&lt;span style=&quot;font-weight: normal;&quot;&gt;B&lt;/span&gt;_name" style="ellipse;whiteSpace=wrap;html=1;align=center;fillColor=#B3FF66;strokeWidth=1;fontColor=#000000;fontStyle=1;fontSize=18;strokeColor=#1A1A1A;" parent="1" vertex="1">
          <mxGeometry x="399.99999999999994" y="619.4099999999999" width="130" height="52.5" as="geometry" />
        </mxCell>
        <mxCell id="RrBwnPx38zNHqgzz5I3o-208" value="" style="endArrow=none;html=1;rounded=0;strokeColor=#000000;strokeWidth=2;exitX=0.5;exitY=0;exitDx=0;exitDy=0;entryX=0.75;entryY=1;entryDx=0;entryDy=0;fontColor=#000000;" parent="1" source="RrBwnPx38zNHqgzz5I3o-207" target="RrBwnPx38zNHqgzz5I3o-80" edge="1">
          <mxGeometry relative="1" as="geometry">
            <mxPoint x="445.59" y="612.77" as="sourcePoint" />
            <mxPoint x="429.5" y="474" as="targetPoint" />
          </mxGeometry>
        </mxCell>
        <mxCell id="RrBwnPx38zNHqgzz5I3o-209" value="&lt;u&gt;Ins_id&lt;/u&gt;" style="ellipse;whiteSpace=wrap;html=1;align=center;fillColor=#B3FF66;strokeWidth=1;fontColor=#000000;fontStyle=1;fontSize=18;strokeColor=#000000;" parent="1" vertex="1">
          <mxGeometry x="690" y="516.9999999999999" width="130" height="52.5" as="geometry" />
        </mxCell>
        <mxCell id="RrBwnPx38zNHqgzz5I3o-210" value="" style="endArrow=none;html=1;rounded=0;strokeColor=#000000;strokeWidth=2;exitX=0.5;exitY=0;exitDx=0;exitDy=0;entryX=0;entryY=1;entryDx=0;entryDy=0;fontColor=#000000;" parent="1" source="RrBwnPx38zNHqgzz5I3o-209" target="RrBwnPx38zNHqgzz5I3o-92" edge="1">
          <mxGeometry relative="1" as="geometry">
            <mxPoint x="630.0199999999999" y="614.27" as="sourcePoint" />
            <mxPoint x="687.43" y="515.5" as="targetPoint" />
          </mxGeometry>
        </mxCell>
        <mxCell id="RrBwnPx38zNHqgzz5I3o-211" value="coverage " style="ellipse;whiteSpace=wrap;html=1;align=center;fillColor=#B3FF66;strokeWidth=1;fontColor=#000000;fontStyle=1;fontSize=18;strokeColor=#1A1A1A;" parent="1" vertex="1">
          <mxGeometry x="786" y="598.9999999999998" width="130" height="52.5" as="geometry" />
        </mxCell>
        <mxCell id="RrBwnPx38zNHqgzz5I3o-212" value="" style="endArrow=none;html=1;rounded=0;strokeColor=#000000;strokeWidth=2;exitX=0.5;exitY=0;exitDx=0;exitDy=0;entryX=0.5;entryY=1;entryDx=0;entryDy=0;fontColor=#000000;" parent="1" source="RrBwnPx38zNHqgzz5I3o-211" target="RrBwnPx38zNHqgzz5I3o-92" edge="1">
          <mxGeometry relative="1" as="geometry">
            <mxPoint x="790.0199999999999" y="610.5699999999999" as="sourcePoint" />
            <mxPoint x="834.43" y="502.3" as="targetPoint" />
          </mxGeometry>
        </mxCell>
        <mxCell id="RrBwnPx38zNHqgzz5I3o-215" value="User_id" style="ellipse;whiteSpace=wrap;html=1;align=center;fillColor=#B3FF66;strokeWidth=1;fontColor=#000000;fontStyle=1;fontSize=18;strokeColor=#1A1A1A;" parent="1" vertex="1">
          <mxGeometry x="874" y="511.9999999999998" width="130" height="52.5" as="geometry" />
        </mxCell>
        <mxCell id="RrBwnPx38zNHqgzz5I3o-216" value="" style="endArrow=none;html=1;rounded=0;strokeColor=#000000;strokeWidth=2;exitX=0.5;exitY=0;exitDx=0;exitDy=0;entryX=0.75;entryY=1;entryDx=0;entryDy=0;fontColor=#000000;" parent="1" source="RrBwnPx38zNHqgzz5I3o-215" target="RrBwnPx38zNHqgzz5I3o-92" edge="1">
          <mxGeometry relative="1" as="geometry">
            <mxPoint x="920.0199999999999" y="558.0699999999999" as="sourcePoint" />
            <mxPoint x="994.43" y="408.5" as="targetPoint" />
          </mxGeometry>
        </mxCell>
        <mxCell id="RrBwnPx38zNHqgzz5I3o-218" value="" style="endArrow=none;html=1;rounded=0;strokeColor=#000000;strokeWidth=2;exitX=0.5;exitY=1;exitDx=0;exitDy=0;entryX=1;entryY=0;entryDx=0;entryDy=0;fontColor=#000000;" parent="1" source="RrBwnPx38zNHqgzz5I3o-199" target="RrBwnPx38zNHqgzz5I3o-74" edge="1">
          <mxGeometry relative="1" as="geometry">
            <mxPoint x="1005" y="80.5" as="sourcePoint" />
            <mxPoint x="950" y="120.5" as="targetPoint" />
          </mxGeometry>
        </mxCell>
        <mxCell id="C0ZmbUt9TwhFOThd2Ba9-2" value="" style="endArrow=none;html=1;rounded=0;strokeColor=#000000;strokeWidth=2;exitX=0.5;exitY=0;exitDx=0;exitDy=0;entryX=1;entryY=0.5;entryDx=0;entryDy=0;fontColor=#000000;" parent="1" source="IcnVIqFjb3jkJIIyJf2A-2" target="RrBwnPx38zNHqgzz5I3o-28" edge="1">
          <mxGeometry relative="1" as="geometry">
            <mxPoint x="-57.25" y="447.6500000000001" as="sourcePoint" />
            <mxPoint x="-108.25" y="424.86" as="targetPoint" />
          </mxGeometry>
        </mxCell>
        <mxCell id="IcnVIqFjb3jkJIIyJf2A-1" value="Contact_no" style="ellipse;shape=doubleEllipse;margin=3;whiteSpace=wrap;html=1;align=center;fillColor=#B3FF66;fontColor=#000000;strokeColor=#1A1A1A;fontStyle=1;fontSize=18;" vertex="1" parent="1">
          <mxGeometry x="-824" y="391" width="123" height="49" as="geometry" />
        </mxCell>
        <mxCell id="IcnVIqFjb3jkJIIyJf2A-2" value="S_phone_no" style="ellipse;shape=doubleEllipse;margin=3;whiteSpace=wrap;html=1;align=center;fillColor=#B3FF66;fontColor=#000000;strokeColor=#1A1A1A;fontStyle=1;fontSize=18;" vertex="1" parent="1">
          <mxGeometry x="-132.25" y="450" width="143" height="58" as="geometry" />
        </mxCell>
        <mxCell id="IcnVIqFjb3jkJIIyJf2A-3" value="U_phone_no" style="ellipse;shape=doubleEllipse;margin=3;whiteSpace=wrap;html=1;align=center;fillColor=#B3FF66;fontColor=#000000;strokeColor=#1A1A1A;fontStyle=1;fontSize=18;" vertex="1" parent="1">
          <mxGeometry x="92" y="76.5" width="143" height="58" as="geometry" />
        </mxCell>
        <mxCell id="IcnVIqFjb3jkJIIyJf2A-4" value="" style="endArrow=none;html=1;rounded=0;entryX=0.101;entryY=0.802;entryDx=0;entryDy=0;exitX=1;exitY=0;exitDx=0;exitDy=0;strokeColor=#000000;strokeWidth=2;entryPerimeter=0;fontColor=#000000;" edge="1" parent="1" source="RrBwnPx38zNHqgzz5I3o-2" target="IcnVIqFjb3jkJIIyJf2A-3">
          <mxGeometry relative="1" as="geometry">
            <mxPoint x="62.2" y="167.7" as="sourcePoint" />
            <mxPoint x="88.2" y="116.7" as="targetPoint" />
          </mxGeometry>
        </mxCell>
        <mxCell id="IcnVIqFjb3jkJIIyJf2A-5" value="age" style="ellipse;whiteSpace=wrap;html=1;align=center;dashed=1;fontSize=18;fontStyle=1;fillColor=#B3FF66;fontColor=#000000;strokeColor=#000000;" vertex="1" parent="1">
          <mxGeometry x="121" y="228.5" width="85" height="39" as="geometry" />
        </mxCell>
        <mxCell id="IcnVIqFjb3jkJIIyJf2A-6" value="" style="endArrow=none;html=1;rounded=0;entryX=0;entryY=0;entryDx=0;entryDy=0;exitX=1;exitY=0.75;exitDx=0;exitDy=0;strokeColor=#000000;strokeWidth=2;fontColor=#000000;" edge="1" parent="1" source="RrBwnPx38zNHqgzz5I3o-2" target="IcnVIqFjb3jkJIIyJf2A-5">
          <mxGeometry relative="1" as="geometry">
            <mxPoint x="75.5" y="212.48" as="sourcePoint" />
            <mxPoint x="132.5" y="167.48" as="targetPoint" />
          </mxGeometry>
        </mxCell>
        <mxCell id="IcnVIqFjb3jkJIIyJf2A-7" value="Tr_phone_no" style="ellipse;shape=doubleEllipse;margin=3;whiteSpace=wrap;html=1;align=center;fillColor=#B3FF66;fontColor=#000000;strokeColor=#1A1A1A;fontStyle=1;fontSize=18;" vertex="1" parent="1">
          <mxGeometry x="721.43" y="-1" width="143" height="58" as="geometry" />
        </mxCell>
        <mxCell id="IcnVIqFjb3jkJIIyJf2A-8" value="Ins_phone_no" style="ellipse;shape=doubleEllipse;margin=3;whiteSpace=wrap;html=1;align=center;fillColor=#B3FF66;fontColor=#000000;strokeColor=#1A1A1A;fontStyle=1;fontSize=18;" vertex="1" parent="1">
          <mxGeometry x="853" y="309" width="143" height="58" as="geometry" />
        </mxCell>
        <mxCell id="IcnVIqFjb3jkJIIyJf2A-11" value="B_category" style="ellipse;shape=doubleEllipse;margin=3;whiteSpace=wrap;html=1;align=center;fillColor=#B3FF66;fontColor=#000000;strokeColor=#1A1A1A;fontStyle=1;fontSize=18;" vertex="1" parent="1">
          <mxGeometry x="193" y="544" width="143" height="58" as="geometry" />
        </mxCell>
        <mxCell id="IcnVIqFjb3jkJIIyJf2A-12" value="SD_category" style="ellipse;shape=doubleEllipse;margin=3;whiteSpace=wrap;html=1;align=center;fillColor=#B3FF66;fontColor=#000000;strokeColor=#1A1A1A;fontStyle=1;fontSize=18;" vertex="1" parent="1">
          <mxGeometry x="707.0000000000001" y="874.5" width="143" height="58" as="geometry" />
        </mxCell>
        <mxCell id="IcnVIqFjb3jkJIIyJf2A-13" value="FS_phone_no" style="ellipse;shape=doubleEllipse;margin=3;whiteSpace=wrap;html=1;align=center;fillColor=#B3FF66;fontColor=#000000;strokeColor=#1A1A1A;fontStyle=1;fontSize=18;" vertex="1" parent="1">
          <mxGeometry x="257.5" y="837" width="143" height="58" as="geometry" />
        </mxCell>
        <mxCell id="IcnVIqFjb3jkJIIyJf2A-14" value="V_phone_no" style="ellipse;shape=doubleEllipse;margin=3;whiteSpace=wrap;html=1;align=center;fillColor=#B3FF66;fontColor=#000000;strokeColor=#1A1A1A;fontStyle=1;fontSize=18;" vertex="1" parent="1">
          <mxGeometry x="30" y="677" width="143" height="58" as="geometry" />
        </mxCell>
        <mxCell id="IcnVIqFjb3jkJIIyJf2A-15" value="C_category" style="ellipse;shape=doubleEllipse;margin=3;whiteSpace=wrap;html=1;align=center;fillColor=#B3FF66;fontColor=#000000;strokeColor=#000000;fontStyle=1;fontSize=18;" vertex="1" parent="1">
          <mxGeometry x="-242.5" y="1082.25" width="143" height="58" as="geometry" />
        </mxCell>
        <mxCell id="IcnVIqFjb3jkJIIyJf2A-16" value="HP_category" style="ellipse;shape=doubleEllipse;margin=3;whiteSpace=wrap;html=1;align=center;fillColor=#B3FF66;fontColor=#000000;strokeColor=#000000;fontStyle=1;fontSize=18;" vertex="1" parent="1">
          <mxGeometry x="-504" y="870" width="143" height="58" as="geometry" />
        </mxCell>
        <mxCell id="IcnVIqFjb3jkJIIyJf2A-17" value="Sh_Contact_no" style="ellipse;shape=doubleEllipse;margin=3;whiteSpace=wrap;html=1;align=center;fillColor=#B3FF66;fontColor=#000000;strokeColor=#1A1A1A;fontStyle=1;fontSize=18;" vertex="1" parent="1">
          <mxGeometry x="-835.5" y="937.5" width="161" height="64.5" as="geometry" />
        </mxCell>
        <mxCell id="IcnVIqFjb3jkJIIyJf2A-18" value="&lt;font style=&quot;font-size: 15px;&quot;&gt;&lt;b style=&quot;font-size: 15px;&quot;&gt;M&lt;/b&gt;&lt;/font&gt;" style="text;html=1;strokeColor=none;fillColor=none;align=center;verticalAlign=middle;whiteSpace=wrap;rounded=0;strokeWidth=1;fontSize=15;fontColor=#000000;" vertex="1" parent="1">
          <mxGeometry x="-107" y="137.5" width="60" height="30" as="geometry" />
        </mxCell>
        <mxCell id="IcnVIqFjb3jkJIIyJf2A-19" value="&lt;font style=&quot;font-size: 15px;&quot;&gt;&lt;span style=&quot;font-size: 15px;&quot;&gt;1&lt;/span&gt;&lt;/font&gt;" style="text;html=1;strokeColor=none;fillColor=none;align=center;verticalAlign=middle;whiteSpace=wrap;rounded=0;fontSize=15;fontStyle=1;fontColor=#000000;" vertex="1" parent="1">
          <mxGeometry x="-540.5" y="77.5" width="60" height="30" as="geometry" />
        </mxCell>
        <mxCell id="IcnVIqFjb3jkJIIyJf2A-20" value="&lt;font style=&quot;font-size: 15px;&quot;&gt;&lt;b style=&quot;font-size: 15px;&quot;&gt;M&lt;/b&gt;&lt;/font&gt;" style="text;html=1;strokeColor=none;fillColor=none;align=center;verticalAlign=middle;whiteSpace=wrap;rounded=0;strokeWidth=1;fontSize=15;fontColor=#000000;" vertex="1" parent="1">
          <mxGeometry x="-141" y="167.5" width="60" height="30" as="geometry" />
        </mxCell>
        <mxCell id="IcnVIqFjb3jkJIIyJf2A-21" value="&lt;font style=&quot;font-size: 15px;&quot;&gt;&lt;b style=&quot;font-size: 15px;&quot;&gt;N&lt;/b&gt;&lt;/font&gt;" style="text;html=1;strokeColor=none;fillColor=none;align=center;verticalAlign=middle;whiteSpace=wrap;rounded=0;strokeWidth=1;fontSize=15;fontColor=#000000;" vertex="1" parent="1">
          <mxGeometry x="-587" y="360.5" width="60" height="30" as="geometry" />
        </mxCell>
        <mxCell id="IcnVIqFjb3jkJIIyJf2A-22" value="&lt;font style=&quot;font-size: 15px;&quot;&gt;&lt;b style=&quot;font-size: 15px;&quot;&gt;M&lt;/b&gt;&lt;/font&gt;" style="text;html=1;strokeColor=none;fillColor=none;align=center;verticalAlign=middle;whiteSpace=wrap;rounded=0;strokeWidth=1;fontSize=15;fontColor=#000000;" vertex="1" parent="1">
          <mxGeometry x="-124" y="206.5" width="60" height="30" as="geometry" />
        </mxCell>
        <mxCell id="IcnVIqFjb3jkJIIyJf2A-23" value="&lt;font style=&quot;font-size: 15px;&quot;&gt;&lt;b style=&quot;font-size: 15px;&quot;&gt;N&lt;/b&gt;&lt;/font&gt;" style="text;html=1;strokeColor=none;fillColor=none;align=center;verticalAlign=middle;whiteSpace=wrap;rounded=0;strokeWidth=1;fontSize=15;fontColor=#000000;" vertex="1" parent="1">
          <mxGeometry x="-167" y="358" width="60" height="30" as="geometry" />
        </mxCell>
        <mxCell id="IcnVIqFjb3jkJIIyJf2A-24" value="&lt;font style=&quot;font-size: 15px;&quot;&gt;&lt;b style=&quot;font-size: 15px;&quot;&gt;N&lt;/b&gt;&lt;/font&gt;" style="text;html=1;strokeColor=none;fillColor=none;align=center;verticalAlign=middle;whiteSpace=wrap;rounded=0;strokeWidth=1;fontSize=15;fontColor=#000000;" vertex="1" parent="1">
          <mxGeometry x="-259" y="384" width="60" height="30" as="geometry" />
        </mxCell>
        <mxCell id="IcnVIqFjb3jkJIIyJf2A-25" value="&lt;font style=&quot;font-size: 15px;&quot;&gt;&lt;b style=&quot;font-size: 15px;&quot;&gt;M&lt;/b&gt;&lt;/font&gt;" style="text;html=1;strokeColor=none;fillColor=none;align=center;verticalAlign=middle;whiteSpace=wrap;rounded=0;strokeWidth=1;fontSize=15;fontColor=#000000;" vertex="1" parent="1">
          <mxGeometry x="-532.5" y="382" width="60" height="30" as="geometry" />
        </mxCell>
        <mxCell id="IcnVIqFjb3jkJIIyJf2A-26" value="&lt;font style=&quot;font-size: 15px;&quot;&gt;&lt;b style=&quot;font-size: 15px;&quot;&gt;M&lt;/b&gt;&lt;/font&gt;" style="text;html=1;strokeColor=none;fillColor=none;align=center;verticalAlign=middle;whiteSpace=wrap;rounded=0;strokeWidth=1;fontSize=15;fontColor=#000000;" vertex="1" parent="1">
          <mxGeometry x="36" y="164" width="60" height="30" as="geometry" />
        </mxCell>
        <mxCell id="IcnVIqFjb3jkJIIyJf2A-27" value="&lt;font style=&quot;font-size: 15px;&quot;&gt;&lt;span style=&quot;font-size: 15px;&quot;&gt;1&lt;/span&gt;&lt;/font&gt;" style="text;html=1;strokeColor=none;fillColor=none;align=center;verticalAlign=middle;whiteSpace=wrap;rounded=0;fontSize=15;fontStyle=1;fontColor=#000000;" vertex="1" parent="1">
          <mxGeometry x="320" y="162" width="60" height="30" as="geometry" />
        </mxCell>
        <mxCell id="IcnVIqFjb3jkJIIyJf2A-28" value="&lt;font style=&quot;font-size: 15px;&quot;&gt;&lt;b style=&quot;font-size: 15px;&quot;&gt;N&lt;/b&gt;&lt;/font&gt;" style="text;html=1;strokeColor=none;fillColor=none;align=center;verticalAlign=middle;whiteSpace=wrap;rounded=0;strokeWidth=1;fontSize=15;fontColor=#000000;" vertex="1" parent="1">
          <mxGeometry x="-111.5" y="653" width="60" height="30" as="geometry" />
        </mxCell>
        <mxCell id="IcnVIqFjb3jkJIIyJf2A-30" value="&lt;font style=&quot;font-size: 15px;&quot;&gt;&lt;b style=&quot;font-size: 15px;&quot;&gt;M&lt;/b&gt;&lt;/font&gt;" style="text;html=1;strokeColor=none;fillColor=none;align=center;verticalAlign=middle;whiteSpace=wrap;rounded=0;strokeWidth=1;fontSize=15;fontColor=#000000;" vertex="1" parent="1">
          <mxGeometry x="-28.5" y="220.5" width="60" height="30" as="geometry" />
        </mxCell>
        <mxCell id="IcnVIqFjb3jkJIIyJf2A-31" value="&lt;font style=&quot;font-size: 15px;&quot;&gt;&lt;b style=&quot;font-size: 15px;&quot;&gt;M&lt;/b&gt;&lt;/font&gt;" style="text;html=1;strokeColor=none;fillColor=none;align=center;verticalAlign=middle;whiteSpace=wrap;rounded=0;strokeWidth=1;fontSize=15;fontColor=#000000;" vertex="1" parent="1">
          <mxGeometry x="14.5" y="210" width="60" height="30" as="geometry" />
        </mxCell>
        <mxCell id="IcnVIqFjb3jkJIIyJf2A-32" value="&lt;font style=&quot;font-size: 15px;&quot;&gt;&lt;b style=&quot;font-size: 15px;&quot;&gt;N&lt;/b&gt;&lt;/font&gt;" style="text;html=1;strokeColor=none;fillColor=none;align=center;verticalAlign=middle;whiteSpace=wrap;rounded=0;strokeWidth=1;fontSize=15;fontColor=#000000;" vertex="1" parent="1">
          <mxGeometry x="155" y="733.4" width="60" height="30" as="geometry" />
        </mxCell>
        <mxCell id="IcnVIqFjb3jkJIIyJf2A-33" value="&lt;font style=&quot;font-size: 15px;&quot;&gt;&lt;span style=&quot;font-size: 15px;&quot;&gt;1&lt;/span&gt;&lt;/font&gt;" style="text;html=1;strokeColor=none;fillColor=none;align=center;verticalAlign=middle;whiteSpace=wrap;rounded=0;fontSize=15;fontStyle=1;fontColor=#000000;" vertex="1" parent="1">
          <mxGeometry x="370" y="207.5" width="60" height="30" as="geometry" />
        </mxCell>
        <mxCell id="IcnVIqFjb3jkJIIyJf2A-34" value="&lt;font style=&quot;font-size: 15px;&quot;&gt;&lt;span style=&quot;font-size: 15px;&quot;&gt;1&lt;/span&gt;&lt;/font&gt;" style="text;html=1;strokeColor=none;fillColor=none;align=center;verticalAlign=middle;whiteSpace=wrap;rounded=0;fontSize=15;fontStyle=1;fontColor=#000000;" vertex="1" parent="1">
          <mxGeometry x="371" y="459" width="60" height="30" as="geometry" />
        </mxCell>
        <mxCell id="IcnVIqFjb3jkJIIyJf2A-35" value="&lt;font style=&quot;font-size: 15px;&quot;&gt;&lt;span style=&quot;font-size: 15px;&quot;&gt;1&lt;/span&gt;&lt;/font&gt;" style="text;html=1;strokeColor=none;fillColor=none;align=center;verticalAlign=middle;whiteSpace=wrap;rounded=0;fontSize=15;fontStyle=1;fontColor=#000000;" vertex="1" parent="1">
          <mxGeometry x="470" y="159" width="60" height="30" as="geometry" />
        </mxCell>
        <mxCell id="IcnVIqFjb3jkJIIyJf2A-36" value="&lt;font style=&quot;font-size: 15px;&quot;&gt;&lt;span style=&quot;font-size: 15px;&quot;&gt;1&lt;/span&gt;&lt;/font&gt;" style="text;html=1;strokeColor=none;fillColor=none;align=center;verticalAlign=middle;whiteSpace=wrap;rounded=0;fontSize=15;fontStyle=1;fontColor=#000000;" vertex="1" parent="1">
          <mxGeometry x="465" y="195.5" width="60" height="30" as="geometry" />
        </mxCell>
        <mxCell id="IcnVIqFjb3jkJIIyJf2A-37" value="&lt;font style=&quot;font-size: 15px;&quot;&gt;&lt;b style=&quot;font-size: 15px;&quot;&gt;M&lt;/b&gt;&lt;/font&gt;" style="text;html=1;strokeColor=none;fillColor=none;align=center;verticalAlign=middle;whiteSpace=wrap;rounded=0;strokeWidth=1;fontSize=15;fontColor=#000000;" vertex="1" parent="1">
          <mxGeometry x="732" y="157" width="60" height="30" as="geometry" />
        </mxCell>
        <mxCell id="IcnVIqFjb3jkJIIyJf2A-38" value="&lt;font style=&quot;font-size: 15px;&quot;&gt;&lt;span style=&quot;font-size: 15px;&quot;&gt;M&lt;/span&gt;&lt;/font&gt;" style="text;html=1;strokeColor=none;fillColor=none;align=center;verticalAlign=middle;whiteSpace=wrap;rounded=0;fontSize=15;fontStyle=1;fontColor=#000000;" vertex="1" parent="1">
          <mxGeometry x="758.4300000000001" y="418" width="60" height="30" as="geometry" />
        </mxCell>
        <mxCell id="IcnVIqFjb3jkJIIyJf2A-39" value="&lt;font style=&quot;font-size: 15px;&quot;&gt;&lt;span style=&quot;font-size: 15px;&quot;&gt;1&lt;/span&gt;&lt;/font&gt;" style="text;html=1;strokeColor=none;fillColor=none;align=center;verticalAlign=middle;whiteSpace=wrap;rounded=0;fontSize=15;fontStyle=1;fontColor=#000000;" vertex="1" parent="1">
          <mxGeometry x="414" y="208.5" width="60" height="30" as="geometry" />
        </mxCell>
        <mxCell id="IcnVIqFjb3jkJIIyJf2A-40" value="&lt;font style=&quot;font-size: 15px;&quot;&gt;&lt;span style=&quot;font-size: 15px;&quot;&gt;1&lt;/span&gt;&lt;/font&gt;" style="text;html=1;strokeColor=none;fillColor=none;align=center;verticalAlign=middle;whiteSpace=wrap;rounded=0;fontSize=15;fontStyle=1;fontColor=#000000;" vertex="1" parent="1">
          <mxGeometry x="586" y="791.5" width="60" height="30" as="geometry" />
        </mxCell>
        <mxCell id="IcnVIqFjb3jkJIIyJf2A-41" value="&lt;font style=&quot;font-size: 15px;&quot;&gt;&lt;span style=&quot;font-size: 15px;&quot;&gt;1&lt;/span&gt;&lt;/font&gt;" style="text;html=1;strokeColor=none;fillColor=none;align=center;verticalAlign=middle;whiteSpace=wrap;rounded=0;fontSize=15;fontStyle=1;fontColor=#000000;" vertex="1" parent="1">
          <mxGeometry x="-82.5" y="728.5" width="60" height="30" as="geometry" />
        </mxCell>
        <mxCell id="IcnVIqFjb3jkJIIyJf2A-42" value="&lt;font style=&quot;font-size: 15px;&quot;&gt;&lt;span style=&quot;font-size: 15px;&quot;&gt;M&lt;/span&gt;&lt;/font&gt;" style="text;html=1;strokeColor=none;fillColor=none;align=center;verticalAlign=middle;whiteSpace=wrap;rounded=0;fontSize=15;fontStyle=1;fontColor=#000000;" vertex="1" parent="1">
          <mxGeometry x="-83.75" y="909.25" width="60" height="30" as="geometry" />
        </mxCell>
        <mxCell id="IcnVIqFjb3jkJIIyJf2A-43" value="&lt;font style=&quot;font-size: 15px;&quot;&gt;&lt;b style=&quot;font-size: 15px;&quot;&gt;N&lt;/b&gt;&lt;/font&gt;" style="text;html=1;strokeColor=none;fillColor=none;align=center;verticalAlign=middle;whiteSpace=wrap;rounded=0;strokeWidth=1;fontSize=15;fontColor=#000000;" vertex="1" parent="1">
          <mxGeometry x="-184" y="677" width="60" height="30" as="geometry" />
        </mxCell>
        <mxCell id="IcnVIqFjb3jkJIIyJf2A-44" value="&lt;font style=&quot;font-size: 15px;&quot;&gt;&lt;b style=&quot;font-size: 15px;&quot;&gt;M&lt;/b&gt;&lt;/font&gt;" style="text;html=1;strokeColor=none;fillColor=none;align=center;verticalAlign=middle;whiteSpace=wrap;rounded=0;strokeWidth=1;fontSize=15;fontColor=#000000;" vertex="1" parent="1">
          <mxGeometry x="-541.5" y="431" width="60" height="30" as="geometry" />
        </mxCell>
        <mxCell id="IcnVIqFjb3jkJIIyJf2A-45" value="&lt;font style=&quot;font-size: 15px;&quot;&gt;&lt;b style=&quot;font-size: 15px;&quot;&gt;M&lt;/b&gt;&lt;/font&gt;" style="text;html=1;strokeColor=none;fillColor=none;align=center;verticalAlign=middle;whiteSpace=wrap;rounded=0;strokeWidth=1;fontSize=15;fontColor=#000000;" vertex="1" parent="1">
          <mxGeometry x="-584" y="443" width="60" height="30" as="geometry" />
        </mxCell>
        <mxCell id="IcnVIqFjb3jkJIIyJf2A-46" value="&lt;font style=&quot;font-size: 15px;&quot;&gt;&lt;b style=&quot;font-size: 15px;&quot;&gt;N&lt;/b&gt;&lt;/font&gt;" style="text;html=1;strokeColor=none;fillColor=none;align=center;verticalAlign=middle;whiteSpace=wrap;rounded=0;strokeWidth=1;fontSize=15;fontColor=#000000;" vertex="1" parent="1">
          <mxGeometry x="-583" y="971.25" width="60" height="30" as="geometry" />
        </mxCell>
        <mxCell id="IcnVIqFjb3jkJIIyJf2A-47" value="&lt;font style=&quot;font-size: 15px;&quot;&gt;&lt;b style=&quot;font-size: 15px;&quot;&gt;M&lt;/b&gt;&lt;/font&gt;" style="text;html=1;strokeColor=none;fillColor=none;align=center;verticalAlign=middle;whiteSpace=wrap;rounded=0;strokeWidth=1;fontSize=15;fontColor=#000000;" vertex="1" parent="1">
          <mxGeometry x="-628" y="448" width="60" height="30" as="geometry" />
        </mxCell>
        <mxCell id="IcnVIqFjb3jkJIIyJf2A-48" value="&lt;font style=&quot;font-size: 15px;&quot;&gt;&lt;b style=&quot;font-size: 15px;&quot;&gt;N&lt;/b&gt;&lt;/font&gt;" style="text;html=1;strokeColor=none;fillColor=none;align=center;verticalAlign=middle;whiteSpace=wrap;rounded=0;strokeWidth=1;fontSize=15;fontColor=#000000;" vertex="1" parent="1">
          <mxGeometry x="-806.72" y="756.5" width="60" height="30" as="geometry" />
        </mxCell>
        <mxCell id="IcnVIqFjb3jkJIIyJf2A-49" value="" style="shape=link;html=1;rounded=0;exitX=0.5;exitY=1;exitDx=0;exitDy=0;entryX=0.5;entryY=0;entryDx=0;entryDy=0;strokeColor=#000000;strokeWidth=3;fontColor=#000000;" edge="1" parent="1" source="RrBwnPx38zNHqgzz5I3o-41" target="RrBwnPx38zNHqgzz5I3o-44">
          <mxGeometry relative="1" as="geometry">
            <mxPoint x="-50" y="890" as="sourcePoint" />
            <mxPoint x="-173" y="946" as="targetPoint" />
          </mxGeometry>
        </mxCell>
        <mxCell id="IcnVIqFjb3jkJIIyJf2A-52" value="" style="endArrow=none;html=1;rounded=0;entryX=0.5;entryY=0;entryDx=0;entryDy=0;exitX=0.5;exitY=1;exitDx=0;exitDy=0;strokeColor=#000000;strokeWidth=2;fontColor=#000000;" edge="1" source="IcnVIqFjb3jkJIIyJf2A-53" parent="1" target="RrBwnPx38zNHqgzz5I3o-2">
          <mxGeometry relative="1" as="geometry">
            <mxPoint x="-100" y="37" as="sourcePoint" />
            <mxPoint x="278.25" y="2.5" as="targetPoint" />
          </mxGeometry>
        </mxCell>
        <mxCell id="IcnVIqFjb3jkJIIyJf2A-53" value="Gender" style="ellipse;whiteSpace=wrap;html=1;align=center;fillColor=#B3FF66;strokeWidth=1;fontColor=#000000;fontStyle=1;fontSize=18;strokeColor=#1A1A1A;" vertex="1" parent="1">
          <mxGeometry x="-152.5" y="-17.5" width="110" height="49" as="geometry" />
        </mxCell>
      </root>
    </mxGraphModel>
  </diagram>
</mxfile>
